<?xml version="1.0" encoding="UTF-8"?>
<!DOCTYPE svg PUBLIC "-//W3C//DTD SVG 1.1//EN" "http://www.w3.org/Graphics/SVG/1.1/DTD/svg11.dtd">
<svg xmlns="http://www.w3.org/2000/svg" version="1.1" width="249px" height="249px" style="shape-rendering:geometricPrecision; text-rendering:geometricPrecision; image-rendering:optimizeQuality; fill-rule:evenodd; clip-rule:evenodd" xmlns:xlink="http://www.w3.org/1999/xlink">
<rect x="0" y="0" width="249" height="249" fill="#ffffff"/>
<g><path fill="#ffffff" stroke="#ffffff" stroke-width="0.5" d="M 0,0 C 83,0 166,0 249,0 C 249,83 249,166 249,249 C 166,249 83,249 0,249 C 0,213.67 0,178.34 0,143.01 C 0.3,142.98 0.59,142.96 0.89,142.93 C 1.89,146.04 3.05,149.09 4.38,152.08 C 10.19,162.56 17.86,171.43 27.38,178.7 C 28.75,179.82 30.11,180.93 31.46,182.05 C 42.52,189.57 54.4,195.44 67.08,199.66 C 69.68,200.54 72.3,201.35 74.94,202.1 C 77.7,202.81 80.46,203.55 83.21,204.31 C 85.81,204.82 88.42,205.29 91.03,205.73 C 97.22,206.32 103.37,207.12 109.5,208.14 C 119.17,208.21 128.83,208.21 138.5,208.13 C 141.38,207.78 144.23,207.29 147.05,206.66 C 150.18,206.56 153.29,206.27 156.38,205.79 C 161.31,204.83 166.17,203.59 170.96,202.07 C 184.8,198.4 197.85,192.88 210.13,185.53 C 211.62,184.57 213.04,183.53 214.39,182.39 C 221.24,177.47 227.45,171.87 233.03,165.57 C 235.41,162.25 237.8,158.93 240.2,155.62 C 241.71,152.8 243.07,149.91 244.27,146.94 C 244.66,146.76 244.77,146.46 244.6,146.03 C 245.84,144.18 246.44,142.14 246.39,139.91 C 246.68,139.89 246.86,139.73 246.93,139.41 C 247.06,138.61 247.01,137.82 246.79,137.04 C 247.19,136.39 247.48,135.7 247.67,134.97 C 247.76,132.11 248.01,129.27 248.39,126.45 C 248.03,123.64 247.8,120.82 247.69,117.99 C 247.47,117.27 247.16,116.57 246.77,115.92 C 246.91,115.43 246.75,115.11 246.29,114.94 C 246.47,113.14 246.27,111.39 245.69,109.67 C 244.05,105.25 242.05,100.99 239.68,96.91 C 237.57,93.95 235.47,90.98 233.37,88 C 230.45,84.64 227.36,81.45 224.09,78.41 C 220.54,75.46 216.91,72.61 213.21,69.84 C 211.56,68.59 209.83,67.46 208.02,66.44 C 203.65,64.28 199.33,62 195.07,59.62 C 191.81,58.23 188.55,56.85 185.28,55.49 C 181.83,54.4 178.39,53.27 174.95,52.11 C 169.85,50.62 164.69,49.32 159.49,48.18 C 153.43,47.07 147.34,46.16 141.23,45.45 C 139.33,45.11 137.42,44.93 135.5,44.91 C 126.5,44.89 117.5,44.92 108.5,45 C 100.9,46.01 93.31,47.13 85.74,48.34 C 84.11,48.8 82.47,49.22 80.82,49.59 C 77.84,50.21 74.92,50.99 72.03,51.93 C 57.56,56.01 44.15,62.3 31.77,70.81 C 31.39,71.1 31.01,71.39 30.64,71.69 C 28.42,73.46 26.19,75.2 23.95,76.94 C 20.7,80.19 17.48,83.47 14.28,86.78 C 12.33,89.01 10.51,91.33 8.8,93.75 C 5.31,98.8 2.71,104.27 1.01,110.17 C 0.67,110.11 0.34,110.06 0,110 C 0,73.33 0,36.67 0,0 Z"/></g>
<g><path fill="#fdfdfd" stroke="#fdfdfd" stroke-width="0.5" d="M 109.97,47.77 C 119.28,47.98 128.59,48.03 137.91,47.9 C 145.12,48.87 152.31,49.95 159.49,51.15 C 164.32,52.4 169.15,53.59 173.99,54.73 C 187.37,58.8 199.92,64.64 211.64,72.24 C 220.93,78.37 228.83,85.94 235.34,94.96 C 235.19,95.39 235.29,95.73 235.64,95.99 C 237.01,97.93 238.28,99.95 239.44,102.02 C 240.49,104.57 241.6,107.08 242.79,109.56 C 243.49,112.87 244.21,116.18 244.92,119.5 C 245.64,124.16 245.63,128.83 244.92,133.5 C 244.34,136.84 243.62,140.15 242.76,143.43 C 241.59,146.01 240.51,148.62 239.52,151.26 C 238.91,152.17 238.34,153.1 237.79,154.05 C 237.21,153.86 236.64,153.68 236.06,153.51 C 235.4,152.8 234.7,152.15 233.96,151.54 C 232.76,151.44 231.57,151.28 230.39,151.04 C 229.88,151.06 229.41,151.22 228.99,151.51 C 227.7,150.43 226.3,149.5 224.81,148.71 C 224.3,148.2 223.79,147.68 223.29,147.16 C 222.39,146.94 221.58,146.56 220.86,146.01 C 221.42,145.5 221.77,144.88 221.92,144.14 C 222.39,144.1 222.85,144.16 223.3,144.32 C 225.91,145.98 228.63,147.43 231.46,148.66 C 232.23,148.75 232.93,148.56 233.55,148.09 C 234.55,147 234.41,146.11 233.12,145.42 C 231.4,144.85 229.73,144.15 228.1,143.33 C 227.58,142.56 226.97,141.87 226.26,141.27 C 224.28,140.61 222.48,140.91 220.85,142.18 C 220.49,142.04 220.13,142.07 219.78,142.27 C 218.51,143.88 217.92,145.73 218.03,147.81 C 217.19,147.68 216.37,147.74 215.56,147.99 C 215.17,148.25 215.01,148.61 215.08,149.07 C 214.46,149.73 214.12,150.5 214.05,151.38 C 214.45,152.04 214.71,152.76 214.84,153.52 C 214.72,155.01 214.74,156.49 214.91,157.96 C 214.68,158.53 214.26,158.72 213.66,158.54 C 212.68,157.9 211.88,157.09 211.26,156.08 C 210.03,155.28 208.98,155.5 208.13,156.73 C 207.78,157.25 207.68,157.82 207.84,158.43 C 209.4,159.97 211.07,161.39 212.85,162.7 C 213.66,163.82 214.54,164.86 215.52,165.82 C 214.8,167.56 214.8,169.28 215.53,170.98 C 216.33,171.71 216.99,172.53 217.53,173.46 C 217.81,174.33 217.73,175.16 217.27,175.95 C 216.8,176.58 216.36,177.23 215.96,177.9 C 215.36,178.33 214.77,178.76 214.19,179.21 C 213.68,179.12 213.19,178.97 212.72,178.76 C 211.81,177.84 211.25,176.75 211.03,175.48 C 211.19,174.49 211.2,173.51 211.06,172.54 C 210.5,172 209.84,171.79 209.06,171.89 C 208.61,171.55 208.18,171.2 207.76,170.83 C 207.4,169.88 206.91,169 206.3,168.2 C 205.31,166.87 204.04,166.43 202.48,166.87 C 202.34,167.11 202.2,167.34 202.06,167.57 C 202.49,168.39 202.93,169.2 203.39,170.01 C 202.87,170.68 202.18,171.06 201.31,171.16 C 201.03,170.82 200.71,170.54 200.35,170.3 C 199.83,169.96 199.39,170.03 199.04,170.52 C 198.85,171.6 199.14,172.5 199.93,173.24 C 200.78,174.17 201.24,175.27 201.29,176.53 C 201.1,177.31 200.66,177.91 199.98,178.34 C 198.62,177.54 197.25,176.76 195.87,175.99 C 196.03,174.52 196.31,173.07 196.68,171.64 C 195.85,170.93 195.01,170.95 194.15,171.68 C 193.58,173.16 193.63,174.62 194.33,176.06 C 193.75,176.54 193.1,176.74 192.36,176.65 C 191.42,174.26 190.11,172.12 188.42,170.22 C 187.39,170.24 186.63,170.71 186.14,171.63 C 186.82,173.26 187.67,174.83 188.69,176.33 C 188.34,176.27 187.99,176.21 187.64,176.15 C 186.89,176.69 186.44,177.45 186.29,178.41 C 186.2,176.99 185.44,176.47 183.99,176.84 C 183.68,176.35 183.23,176.14 182.64,176.22 C 182.2,176.86 181.98,177.59 181.97,178.41 C 181.16,178.87 180.42,179.41 179.74,180.03 C 179.23,179.44 178.58,179.22 177.8,179.37 C 176.99,179.48 176.27,179.79 175.65,180.31 C 174.78,180.47 174.07,180.89 173.53,181.59 C 172.95,181.24 172.33,181.09 171.65,181.13 C 170.05,181.83 168.37,182.09 166.63,181.91 C 166.24,182.05 165.96,182.3 165.78,182.67 C 165.1,182.89 164.44,183.17 163.81,183.52 C 163.67,182.77 163.45,182.06 163.15,181.37 C 162.57,180.33 161.7,179.82 160.54,179.86 C 159.72,180.57 159.51,181.44 159.89,182.49 C 160.26,183.72 160.67,184.94 161.14,186.14 C 160.22,185.55 159.23,185.3 158.17,185.38 C 157.32,184.99 156.43,184.85 155.5,184.95 C 154.15,185.16 153.1,185.81 152.33,186.87 C 152.03,187.74 151.6,188.53 151.04,189.24 C 150.7,189.27 150.36,189.22 150.04,189.09 C 147.19,185.93 144.63,186.16 142.36,189.8 C 141.03,193.47 142.09,196.2 145.53,198 C 147.16,198.51 148.26,198 148.85,196.47 C 148.19,195.79 147.41,195.28 146.5,194.94 C 144.85,193.22 144.59,191.3 145.72,189.19 C 146.2,189.1 146.58,189.25 146.87,189.65 C 147.23,190.3 147.58,190.97 147.9,191.64 C 148.95,191.99 150.02,192.27 151.12,192.48 C 151.57,193.11 152.1,193.65 152.7,194.11 C 153.98,196.09 155.75,196.7 158,195.94 C 158.41,196.18 158.85,196.24 159.32,196.12 C 160,195.66 160.73,195.28 161.49,195 C 162.06,195.39 162.5,195.91 162.8,196.56 C 163.59,196.14 164.31,195.61 164.97,194.97 C 167.37,194.69 169.71,194.18 172,193.42 C 173.16,192.59 174.44,192.25 175.85,192.38 C 176.15,192.94 176.01,193.39 175.44,193.74 C 174.62,194.02 173.79,194.28 172.96,194.52 C 171.99,195.3 172.09,195.72 173.25,195.76 C 174.18,194.99 175.05,194.99 175.86,195.77 C 175.89,196.01 175.91,196.24 175.94,196.48 C 175.4,196.9 174.85,197.31 174.3,197.71 C 174.29,197.91 174.29,198.11 174.28,198.3 C 173.53,198.5 172.78,198.71 172.03,198.91 C 166.25,200.57 160.41,201.93 154.5,203 C 147.82,203.73 141.15,204.58 134.51,205.54 C 127.17,205.7 119.83,205.7 112.49,205.57 C 105.34,204.67 98.2,203.74 91.06,202.76 C 89.12,202.42 87.18,202.07 85.24,201.69 C 82.19,200.95 79.15,200.18 76.12,199.37 C 74.14,198.81 72.16,198.23 70.19,197.61 C 67.99,196.86 65.81,196.09 63.62,195.3 C 64.48,194.39 65.44,193.62 66.52,192.99 C 66.95,191.86 67.75,191.13 68.91,190.81 C 70.04,191.27 71.18,191.32 72.32,190.96 C 72.89,189.37 73.41,187.76 73.88,186.12 C 74.74,184.43 75.98,184.13 77.59,185.22 C 79.24,184.95 79.56,184.14 78.55,182.8 C 77.44,182.47 76.29,182.31 75.13,182.32 C 74.78,181.77 74.3,181.41 73.71,181.21 C 73.9,180.77 73.8,180.4 73.42,180.11 C 72.69,179.75 72.03,179.3 71.42,178.77 C 70.69,179.31 69.87,179.69 68.96,179.91 C 68.31,179.24 67.57,178.68 66.74,178.23 C 66.84,177.78 66.72,177.41 66.37,177.1 C 65.44,176.82 64.49,176.72 63.52,176.8 C 62.83,176.57 62.15,176.3 61.49,175.98 C 60.69,176.58 59.94,177.21 59.23,177.86 C 59.12,176.93 59.37,176.1 59.98,175.37 C 60.01,174.37 59.53,173.79 58.56,173.64 C 57.88,174.33 57.06,174.69 56.11,174.74 C 55.31,174.06 54.66,173.25 54.19,172.3 C 53.84,172.06 53.47,172.01 53.08,172.15 C 51.82,171.61 50.59,171.02 49.4,170.37 C 50.13,169.49 50.66,168.49 51,167.39 C 50.53,165.19 49.5,164.87 47.91,166.45 C 47.42,167.83 46.78,169.13 46,170.37 C 45.36,169.57 45.03,168.65 45,167.61 C 44.85,167.26 44.58,167.03 44.22,166.93 C 43.27,166.02 42.3,165.14 41.29,164.29 C 40.37,163.86 39.6,164.05 38.99,164.85 C 35.48,166.48 34.05,169.19 34.68,172.96 C 34.02,171.32 33.26,169.68 32.4,168.03 C 33.63,166.52 34.86,165.01 36.08,163.49 C 36.53,162.67 36.59,161.82 36.26,160.95 C 36.47,161.55 36.88,161.9 37.47,161.98 C 38.15,161.33 38.87,160.73 39.63,160.2 C 39.92,159.37 39.98,158.52 39.8,157.66 C 39.68,157.3 39.45,157.18 39.11,157.3 C 38.33,157.2 37.55,157.19 36.77,157.27 C 36.46,157.18 36.22,157.29 36.07,157.59 C 35.96,159.18 35.14,159.97 33.6,159.95 C 33.07,158.55 32.4,157.21 31.6,155.91 C 30.96,155.15 30.14,154.87 29.16,155.07 C 27.61,154.89 26.22,155.28 24.99,156.24 C 23.19,155.7 21.37,155.32 19.51,155.08 C 18.14,154.78 17.39,153.95 17.27,152.6 C 17.57,151.81 17.76,151.01 17.84,150.18 C 19.76,148.86 21.72,147.59 23.73,146.4 C 24.66,145.92 25.61,145.49 26.59,145.11 C 27.09,144.38 27.09,143.63 26.58,142.87 C 26.18,141.97 25.5,141.45 24.55,141.31 C 22.31,142.94 20.08,144.59 17.86,146.26 C 16.49,146.91 15.15,147.62 13.84,148.38 C 13.11,149.31 13.14,150.24 13.93,151.19 C 14.27,152.22 14.78,153.15 15.45,153.99 C 15.22,154.58 14.91,155.13 14.53,155.63 C 13.87,155.19 13.19,154.78 12.48,154.41 C 12.16,154.63 12.06,154.93 12.17,155.32 C 12.92,156.25 13.57,157.25 14.13,158.31 C 14.7,158.76 15.27,159.22 15.84,159.67 C 15.84,159.88 15.85,160.1 15.85,160.31 C 15.16,160.83 14.52,161.39 13.93,162.01 C 11.14,158.2 8.65,154.19 6.47,150 C 4.63,146.12 3.28,142.07 2.43,137.87 C 0.63,129.26 0.84,120.71 3.08,112.21 C 4.78,106.51 7.26,101.17 10.53,96.2 C 14.73,89.29 20.04,83.37 26.46,78.45 C 28.37,76.92 30.31,75.4 32.26,73.91 C 32.91,73.44 33.56,72.98 34.23,72.53 C 46.05,64.77 58.74,58.86 72.28,54.78 C 75.51,53.78 78.78,52.97 82.1,52.36 C 85.04,51.46 88.04,50.87 91.1,50.59 C 92.28,50.13 93.5,49.8 94.75,49.6 C 99.85,49.22 104.93,48.61 109.97,47.77 Z M 88.87,102.87 C 89.12,103.9 89.38,104.93 89.66,105.95 C 90.83,107.83 91.86,109.79 92.74,111.83 C 94.58,113.4 96.05,115.26 97.17,117.4 C 99.14,118.84 100.63,120.67 101.65,122.87 C 102.67,123.86 103.73,124.79 104.82,125.65 C 104.72,126.3 104.52,126.92 104.21,127.5 C 105.16,127.76 106.09,128.08 107.02,128.47 C 107.72,129.72 108.57,130.86 109.56,131.9 C 110.05,132.86 110.42,133.86 110.69,134.9 C 112.57,136.46 113.02,138.35 112.05,140.59 C 111.75,141.2 111.29,141.38 110.66,141.15 C 109.66,140.34 108.53,139.8 107.27,139.53 C 103.08,138.82 98.87,138.17 94.65,137.59 C 91.14,138.05 87.61,138.44 84.08,138.74 C 81.35,139.53 78.69,140.53 76.11,141.72 C 74.47,143.43 72.66,144.92 70.67,146.18 C 70.3,146.83 69.96,147.51 69.65,148.19 C 68.9,149.06 68.15,149.94 67.42,150.82 C 67.28,151.84 66.95,152.79 66.44,153.68 C 66.8,154.68 67.25,155.66 67.8,156.61 C 67.96,157.52 68.13,158.42 68.31,159.33 C 69.4,160.55 70.58,161.67 71.86,162.69 C 73.19,163.32 74.5,163.99 75.78,164.72 C 78.51,165.07 81.17,165.72 83.74,166.68 C 85.41,166.91 87.04,166.73 88.62,166.16 C 89.8,166.19 90.99,166.29 92.17,166.45 C 94.61,166.17 97.05,165.91 99.49,165.66 C 102.83,165.14 106.11,164.47 109.34,163.67 C 111.08,162.07 113.11,161.06 115.46,160.63 C 116.14,160.59 116.79,160.73 117.39,161.04 C 119.18,161.85 120.95,162.68 122.71,163.52 C 125.28,163.74 127.75,164.37 130.12,165.4 C 135.51,166.01 140.92,166.4 146.36,166.58 C 149.2,165.51 152.15,164.88 155.2,164.67 C 156.16,164.11 157.2,163.77 158.32,163.68 C 162.37,160.77 166.36,157.79 170.31,154.74 C 171.69,152.46 173.04,150.17 174.34,147.87 C 176.19,145.94 177.63,143.73 178.64,141.24 C 179.1,139.01 178.58,137.05 177.08,135.38 C 175.77,134.35 174.31,134.04 172.7,134.45 C 171.85,135.24 170.88,135.84 169.78,136.24 C 168.97,137.83 168.23,139.46 167.56,141.15 C 166.6,142.21 165.8,143.38 165.17,144.67 C 163.64,146.13 162.1,147.57 160.54,149 C 160.17,149.65 159.8,150.29 159.42,150.93 C 158.41,151.69 157.3,152.26 156.1,152.62 C 155.85,153.02 155.54,153.37 155.16,153.65 C 153.18,153.86 151.32,154.42 149.57,155.32 C 147.54,155.09 145.51,155.01 143.47,155.1 C 142.17,154.66 140.82,154.41 139.44,154.35 C 137.59,153.97 136.21,152.98 135.3,151.39 C 135.41,151.25 135.52,151.11 135.62,150.97 C 138.08,150.77 140.53,150.51 142.97,150.21 C 143.46,149.73 143.7,149.13 143.68,148.43 C 143.95,137.95 143.95,127.46 143.7,116.98 C 143.81,116.31 143.85,115.63 143.82,114.95 C 143.98,114.59 144.25,114.35 144.63,114.23 C 148.53,113.41 152.26,112.11 155.82,110.32 C 162.87,106.48 166.34,100.54 166.22,92.5 C 166.26,83.87 163.01,76.72 156.48,71.07 C 150.26,66.05 143.22,62.76 135.36,61.22 C 128.76,59.7 122.16,59.7 115.55,61.23 C 108.74,62.55 102.67,65.43 97.35,69.85 C 89.96,76.74 86.34,85.21 86.47,95.28 C 86.72,98.01 87.52,100.53 88.87,102.87 Z M 228.46,128.99 C 229.16,132.02 230.83,132.68 233.46,130.96 C 234.6,129.37 234.36,127.97 232.74,126.77 C 231.63,126.12 230.55,126.19 229.49,126.98 C 228.97,127.56 228.62,128.23 228.46,128.99 Z M 12.65,130.11 C 13.21,131.42 14.17,132.3 15.53,132.72 C 17.12,132.26 17.97,131.2 18.09,129.54 C 17.8,128.16 16.94,127.35 15.52,127.1 C 13.81,127.41 12.86,128.41 12.65,130.11 Z M 233.01,141 C 233.34,142.19 234.11,142.8 235.31,142.83 C 236.29,141.93 236.52,140.85 236.03,139.6 C 235.64,139.17 235.17,139.03 234.62,139.19 C 233.84,139.57 233.3,140.18 233.01,141 Z M 181.61,173.99 C 181.88,174.89 182.48,175.27 183.4,175.12 C 184.39,174.67 184.71,173.94 184.35,172.93 C 182.99,172.02 182.07,172.38 181.61,173.99 Z M 83.81,194.04 C 84.74,195.3 85.96,195.66 87.48,195.11 C 87.65,194.9 87.83,194.68 88.01,194.47 C 88.25,192.47 88.56,190.47 88.95,188.49 C 89.62,186.51 90.19,184.5 90.68,182.47 C 90.14,181.08 89.1,180.39 87.55,180.38 C 87.04,180.54 86.7,180.89 86.52,181.41 C 86.15,184.46 85.63,187.49 84.96,190.49 C 84.58,191.68 84.2,192.86 83.81,194.04 Z M 118.51,191.04 C 117.66,191.08 116.81,191.03 115.97,190.9 C 115.91,190.18 115.86,189.46 115.81,188.73 C 115.68,188.63 115.56,188.52 115.43,188.42 C 113.82,188.93 112.76,189.98 112.24,191.58 C 112.23,193.21 112.17,194.84 112.04,196.47 C 112.75,198.56 114.2,199.4 116.37,198.96 C 116.69,198.81 116.88,198.57 116.95,198.23 C 117.34,198.14 117.73,198.05 118.12,197.96 C 118.87,199.32 119.85,199.48 121.06,198.46 C 121.17,198.16 121.27,197.86 121.38,197.57 C 121.36,193.86 121.59,190.16 122.07,186.48 C 121.87,184.52 120.85,183.91 119,184.66 C 118.88,184.92 118.75,185.17 118.63,185.43 C 118.72,187.3 118.68,189.17 118.51,191.04 Z M 91.56,195.14 C 92.06,196.44 93,197.02 94.39,196.88 C 94.61,196.73 94.83,196.58 95.05,196.43 C 95.24,194.17 95.67,191.95 96.34,189.76 C 97.56,189.69 98.78,189.59 100.01,189.48 C 100.98,188.34 100.8,187.47 99.47,186.89 C 98.56,187.08 97.65,187.27 96.74,187.47 C 96.2,187.14 95.67,186.79 95.16,186.41 C 94.72,186.24 94.29,186.26 93.87,186.46 C 93.19,189.35 92.42,192.24 91.56,195.14 Z M 134.5,188.83 C 135.29,191.61 135.87,194.42 136.22,197.28 C 137.1,198.34 138.18,198.61 139.47,198.12 C 139.61,197.92 139.75,197.73 139.89,197.54 C 139.65,196.85 139.39,196.16 139.13,195.47 C 138.92,193.86 138.73,192.25 138.56,190.64 C 139.54,189.05 139.38,187.63 138.06,186.37 C 137.65,185.99 137.16,185.85 136.62,185.95 C 135.92,186.92 135.21,187.87 134.5,188.83 Z M 100.51,194.01 C 100.73,195.58 101.51,196.79 102.84,197.62 C 103.25,197.85 103.56,197.75 103.76,197.32 C 103.91,195.72 104,194.11 104.04,192.5 C 104.09,191.16 104.58,190.01 105.51,189.05 C 105.72,188.25 105.41,187.85 104.6,187.84 C 102.15,189.19 100.79,191.25 100.51,194.01 Z M 128.25,188.25 C 128.63,188.97 128.9,189.73 129.06,190.52 C 129.09,191.65 128.98,192.75 128.72,193.82 C 129.09,194.37 129.43,194.92 129.75,195.5 C 129.53,196.32 129.43,197.15 129.45,197.98 C 130.23,198.93 131.21,199.26 132.42,198.96 C 132.93,198.63 133.15,198.16 133.08,197.54 C 132.89,195.18 132.61,192.83 132.24,190.49 C 131.39,188.9 130.06,188.16 128.25,188.25 Z M 106.32,197.07 C 106.61,198.08 107.23,198.3 108.19,197.75 C 110.48,195.45 110.91,192.83 109.5,189.9 C 108.83,188.72 108.09,188.63 107.26,189.65 C 107.16,192.16 106.85,194.63 106.32,197.07 Z M 124.26,191.03 C 124.5,192.66 125.35,193.07 126.84,192.27 C 127.17,191.2 127,190.23 126.32,189.36 C 125.31,189.52 124.63,190.07 124.26,191.03 Z M 124.15,197 C 124.49,198.78 125.54,199.43 127.3,198.93 C 127.41,198.75 127.51,198.57 127.62,198.4 C 127.56,196.95 127.18,195.61 126.47,194.38 C 125.04,194.67 124.26,195.54 124.15,197 Z"/></g>
<g><path fill="#4f566c" stroke="#4f566c" stroke-width="0.5" d="M 137.74,66.21 C 143.37,67.97 148.45,70.73 152.99,74.5 C 158.21,78.59 161.18,83.92 161.91,90.5 C 162.41,98.08 159.23,103.52 152.37,106.82 C 146.54,109.55 140.52,110.07 134.3,108.4 C 128.28,106.78 123.66,103.33 120.43,98.02 C 118.15,93.8 118.77,90.06 122.3,86.8 C 126.31,83.61 130.41,83.48 134.61,86.4 C 134.89,86.95 135.16,87.51 135.42,88.08 C 134.84,88.53 134.18,88.84 133.46,89.02 C 132.3,89.07 131.18,89.26 130.09,89.59 C 127.16,91.46 125.83,94.11 126.11,97.56 C 126.45,100.47 127.95,102.56 130.6,103.85 C 132.98,105.44 135.6,106.13 138.47,105.92 C 140.32,105.8 142.13,105.58 143.9,105.24 C 145.16,104.42 146.33,103.47 147.4,102.4 C 149.27,100.29 150.62,97.89 151.45,95.2 C 151.86,91.74 151.88,88.28 151.51,84.82 C 148.94,77.23 143.88,72.02 136.35,69.2 C 130.2,67.23 123.97,66.93 117.67,68.31 C 113.39,69.14 109.8,71.16 106.88,74.38 C 106.1,75.54 105.24,76.63 104.3,77.67 C 103.88,79.29 103.4,80.89 102.84,82.48 C 102.32,85.49 102.35,88.5 102.94,91.5 C 104.74,96.18 106.92,100.68 109.48,105 C 112.56,109.97 115.62,114.95 118.67,119.94 C 120.41,123.1 121.63,126.46 122.31,130.01 C 122.44,131.18 122.58,132.36 122.74,133.53 C 122.53,136.36 122.33,139.19 122.14,142.03 C 121.91,144.1 121.33,146.07 120.41,147.94 C 120.29,148.36 120.3,148.78 120.44,149.19 C 122.44,150.72 124.61,151.99 126.96,152.99 C 127.23,153.18 127.51,153.36 127.78,153.55 C 128.09,153.83 128.45,154.03 128.85,154.15 C 129.15,154.29 129.45,154.43 129.76,154.57 C 133.24,156.7 136.98,158.14 140.99,158.91 C 141.1,159.27 141.34,159.52 141.71,159.64 C 144,159.69 146.29,159.81 148.58,160.02 C 148.99,160.01 149.32,160.15 149.58,160.45 C 149.31,160.88 149.09,161.33 148.92,161.8 C 146.11,161.95 143.31,162.08 140.5,162.16 C 137.82,161.99 135.15,161.68 132.49,161.25 C 126.95,160.15 121.57,158.52 116.36,156.36 C 115.54,156.13 114.72,156.04 113.88,156.1 C 112.95,156.14 112.2,155.8 111.65,155.07 C 111.58,154.21 111.14,153.61 110.33,153.29 C 106.6,151.58 102.85,149.91 99.08,148.27 C 95.72,146.74 92.21,145.79 88.54,145.41 C 88.76,144.99 88.67,144.64 88.27,144.37 C 86.74,144.34 86.02,143.57 86.1,142.07 C 91.39,141.82 96.67,141.99 101.93,142.59 C 105.78,143.23 109.5,144.34 113.08,145.91 C 115.79,148 117.29,147.39 117.57,144.07 C 117.58,142.2 117.49,140.34 117.31,138.49 C 115.94,133.69 113.54,129.49 110.11,125.88 C 105.22,120.35 100.48,114.68 95.89,108.87 C 96.01,108.34 95.8,108.09 95.27,108.13 C 95.1,107.72 94.92,107.31 94.75,106.89 C 93.48,103.86 92.46,100.75 91.69,97.54 C 90.41,88.74 92.9,81.18 99.15,74.85 C 106.85,67.65 115.96,64.24 126.5,64.6 C 130.31,64.69 134.06,65.22 137.74,66.21 Z"/></g>
<g><path fill="#5d5d5d" d="M 214.91,157.96 C 215.58,157.68 216.22,157.34 216.83,156.94 C 217.79,157.19 218.75,157.4 219.71,157.57 C 221.71,157.67 223.7,157.72 225.69,157.73 C 225.87,157.93 226.06,158.13 226.24,158.33 C 226.24,160.14 225.36,161.17 223.59,161.44 C 221.4,160.99 219.21,160.69 217.03,160.54 C 216.43,160.87 216.28,161.32 216.58,161.89 C 217.6,162.97 218.73,163.89 219.99,164.68 C 220.29,165.56 220.12,166.34 219.48,167.04 C 218.75,167.87 217.91,168.01 216.97,167.47 C 216.47,166.93 215.99,166.38 215.52,165.82 C 214.54,164.86 213.66,163.82 212.85,162.7 C 211.07,161.39 209.4,159.97 207.84,158.43 C 207.68,157.82 207.78,157.25 208.13,156.73 C 208.98,155.5 210.03,155.28 211.26,156.08 C 211.88,157.09 212.68,157.9 213.66,158.54 C 214.26,158.72 214.68,158.53 214.91,157.96 Z M 163.81,183.52 C 164.01,183.69 164.17,183.9 164.28,184.14 C 164.31,185.11 164.39,186.08 164.53,187.04 C 165.14,188.84 165.63,190.66 165.99,192.52 C 165.84,193.41 165.5,194.23 164.97,194.97 C 164.12,194.72 163.48,194.22 163.07,193.45 C 162.63,190.96 161.98,188.52 161.14,186.14 C 160.67,184.94 160.26,183.72 159.89,182.49 C 159.51,181.44 159.72,180.57 160.54,179.86 C 161.7,179.82 162.57,180.33 163.15,181.37 C 163.45,182.06 163.67,182.77 163.81,183.52 Z M 73.71,181.21 C 74.3,181.41 74.78,181.77 75.13,182.32 C 76.29,182.31 77.44,182.47 78.55,182.8 C 79.56,184.14 79.24,184.95 77.59,185.22 C 75.98,184.13 74.74,184.43 73.88,186.12 C 73.41,187.76 72.89,189.37 72.32,190.96 C 71.18,191.32 70.04,191.27 68.91,190.81 C 69.47,188.66 70.17,186.55 71.01,184.49 C 71.23,183.58 71.36,182.66 71.4,181.73 C 72.03,181.09 72.8,180.92 73.71,181.21 Z M 134.5,188.83 C 135.21,187.87 135.92,186.92 136.62,185.95 C 137.75,185.98 138.56,186.52 139.05,187.57 C 139.22,188.64 139.05,189.66 138.56,190.64 C 138.73,192.25 138.92,193.86 139.13,195.47 C 139.39,196.16 139.65,196.85 139.89,197.54 C 139.27,198.33 138.47,198.57 137.48,198.25 C 136.93,198.09 136.51,197.77 136.22,197.28 C 135.87,194.42 135.29,191.61 134.5,188.83 Z M 172.03,198.91 C 171.74,199.69 171.19,200.22 170.39,200.49 C 170.55,201.03 170.74,201.55 170.96,202.07 C 166.17,203.59 161.31,204.83 156.38,205.79 C 153.29,206.27 150.18,206.56 147.05,206.66 C 144.23,207.29 141.38,207.78 138.5,208.13 C 128.83,208.21 119.17,208.21 109.5,208.14 C 103.37,207.12 97.22,206.32 91.03,205.73 C 90.77,204.74 90.78,203.75 91.06,202.76 C 98.2,203.74 105.34,204.67 112.49,205.57 C 119.83,205.7 127.17,205.7 134.51,205.54 C 141.15,204.58 147.82,203.73 154.5,203 C 160.41,201.93 166.25,200.57 172.03,198.91 Z"/></g>
<g><path fill="#bed1e2" d="M 88.54,145.41 C 92.21,145.79 95.72,146.74 99.08,148.27 C 102.85,149.91 106.6,151.58 110.33,153.29 C 111.14,153.61 111.58,154.21 111.65,155.07 C 109.8,155.9 107.92,156.71 106.01,157.51 C 101.77,158.89 97.43,159.38 92.98,158.99 C 90.5,158.82 88.06,158.41 85.66,157.77 C 83.2,157.22 81.16,155.99 79.54,154.08 C 77.98,152.09 77.91,150.06 79.33,148.01 C 82.01,145.84 85.08,144.98 88.54,145.41 Z M 81.64,153.11 C 84.59,153.99 87.56,154.95 90.54,155.99 C 93.53,156.05 96.52,155.94 99.5,155.66 C 100.81,156.03 102.13,156.17 103.47,156.07 C 103.93,155.37 103.94,154.65 103.49,153.9 C 103.32,153.4 103,153.01 102.54,152.73 C 101.73,152.58 100.92,152.44 100.1,152.31 C 97.57,151.15 95.02,150 92.46,148.87 C 91.21,148.6 89.94,148.57 88.67,148.79 C 88.11,148.15 87.42,147.77 86.61,147.64 C 85.53,147.59 84.46,147.57 83.39,147.59 C 83.17,147.74 82.96,147.9 82.75,148.06 C 82.24,149.72 81.87,151.4 81.64,153.11 Z"/></g>
<g><path fill="#b4c8d5" d="M 137.74,66.21 C 134.06,65.22 130.31,64.69 126.5,64.6 C 115.96,64.24 106.85,67.65 99.15,74.85 C 92.9,81.18 90.41,88.74 91.69,97.54 C 92.46,100.75 93.48,103.86 94.75,106.89 C 93.89,106.89 93.1,106.69 92.38,106.29 C 91.79,104.32 91.05,102.41 90.15,100.58 C 89.91,100.28 89.6,100.1 89.23,100.04 C 89.34,98.39 89.02,96.84 88.29,95.39 C 88.41,93.07 88.29,90.77 87.94,88.48 C 88,88.2 88.06,87.93 88.12,87.65 C 88.76,87.26 89.39,86.83 89.99,86.37 C 90.1,85.64 89.94,84.97 89.49,84.36 C 89.86,83.59 90.22,82.82 90.56,82.04 C 91.75,81.23 92.8,80.27 93.68,79.15 C 93.74,78.26 93.59,77.41 93.23,76.58 C 93.96,76.32 94.74,76.19 95.56,76.21 C 96.2,75.49 96.45,74.63 96.29,73.63 C 96.88,73.3 97.52,73.06 98.22,72.91 C 98.96,72.2 99.81,71.65 100.76,71.25 C 101.13,70.69 101.49,70.14 101.85,69.58 C 102.43,69.53 102.99,69.4 103.53,69.19 C 103.91,68.56 104.3,67.94 104.71,67.34 C 105.95,66.9 107.19,66.45 108.43,65.99 C 108.87,65.39 109.29,64.77 109.68,64.14 C 110.28,64.3 110.85,64.56 111.38,64.91 C 112.29,64.6 113.18,64.21 114.03,63.75 C 114.39,64.23 114.87,64.48 115.48,64.51 C 117.75,63.78 120.09,63.44 122.5,63.5 C 127.48,63.4 132.43,63.69 137.36,64.36 C 137.97,64.85 138.1,65.47 137.74,66.21 Z"/></g>
<g><path fill="#9f3e42" d="M 141.52,116.6 C 141.87,117.87 142.05,119.17 142.05,120.49 C 141.99,129.14 141.95,137.8 141.93,146.45 C 141.97,147.03 141.76,147.5 141.31,147.86 C 138.11,148.52 134.92,148.52 131.73,147.84 C 131.32,147.47 131.1,147.01 131.06,146.46 C 130.88,145.48 130.77,144.5 130.73,143.51 C 130.86,134.68 130.86,125.86 130.74,117.04 C 131.01,116.19 131.6,115.8 132.52,115.86 C 135.56,115.69 138.56,115.94 141.52,116.6 Z M 132.72,131 C 132.66,135.16 132.73,139.32 132.93,143.47 C 133.66,144.16 134.31,144.93 134.86,145.79 C 135.27,146.33 135.8,146.54 136.46,146.41 C 137.43,145.51 138.51,144.77 139.71,144.2 C 140.19,143.77 140.48,143.24 140.57,142.6 C 140.66,138.57 140.69,134.53 140.66,130.5 C 140.22,127.51 140.02,124.51 140.06,121.5 C 139.22,120.59 138.34,119.71 137.4,118.87 C 136.8,118.45 136.16,118.36 135.47,118.6 C 134.79,119.34 134.12,120.09 133.46,120.86 C 133.11,121.34 132.91,121.88 132.85,122.47 C 132.97,125.31 132.93,128.16 132.72,131 Z"/></g>
<g><path fill="#d22921" stroke="#d22921" stroke-width="0.5" d="M 132.72,131 C 132.93,128.16 132.97,125.31 132.85,122.47 C 132.91,121.88 133.11,121.34 133.46,120.86 C 134.12,120.09 134.79,119.34 135.47,118.6 C 136.16,118.36 136.8,118.45 137.4,118.87 C 138.34,119.71 139.22,120.59 140.06,121.5 C 140.02,124.51 140.22,127.51 140.66,130.5 C 140.69,134.53 140.66,138.57 140.57,142.6 C 140.48,143.24 140.19,143.77 139.71,144.2 C 138.51,144.77 137.43,145.51 136.46,146.41 C 135.8,146.54 135.27,146.33 134.86,145.79 C 134.31,144.93 133.66,144.16 132.93,143.47 C 132.73,139.32 132.66,135.16 132.72,131 Z"/></g>
<g><path fill="#6b6b6b" d="M 141.23,45.45 C 147.34,46.16 153.43,47.07 159.49,48.18 C 164.69,49.32 169.85,50.62 174.95,52.11 C 174.87,53.07 174.55,53.94 173.99,54.73 C 169.15,53.59 164.32,52.4 159.49,51.15 C 152.31,49.95 145.12,48.87 137.91,47.9 C 137.97,47.71 138.02,47.52 138.08,47.33 C 139.67,47.57 140.72,46.95 141.23,45.45 Z M 213.21,69.84 C 216.91,72.61 220.54,75.46 224.09,78.41 C 227.36,81.45 230.45,84.64 233.37,88 C 235.47,90.98 237.57,93.95 239.68,96.91 C 242.05,100.99 244.05,105.25 245.69,109.67 C 246.27,111.39 246.47,113.14 246.29,114.94 C 246.15,115.44 246.31,115.76 246.77,115.92 C 247.16,116.57 247.47,117.27 247.69,117.99 C 247.8,120.82 248.03,123.64 248.39,126.45 C 248.01,129.27 247.76,132.11 247.67,134.97 C 247.48,135.7 247.19,136.39 246.79,137.04 C 245.97,137.86 245.84,138.82 246.39,139.91 C 246.44,142.14 245.84,144.18 244.6,146.03 C 244.41,146.31 244.3,146.61 244.27,146.94 C 243.07,149.91 241.71,152.8 240.2,155.62 C 237.8,158.93 235.41,162.25 233.03,165.57 C 227.45,171.87 221.24,177.47 214.39,182.39 C 214.07,181.54 213.54,180.87 212.81,180.35 C 213.27,179.98 213.73,179.6 214.19,179.21 C 214.77,178.76 215.36,178.33 215.96,177.9 C 217.27,178.04 217.97,177.47 218.06,176.18 C 224.24,171.46 229.63,165.94 234.22,159.65 C 235.37,157.74 236.56,155.88 237.79,154.05 C 238.34,153.1 238.91,152.17 239.52,151.26 C 240.51,148.62 241.59,146.01 242.76,143.43 C 243.62,140.15 244.34,136.84 244.92,133.5 C 245.63,128.83 245.64,124.16 244.92,119.5 C 244.21,116.18 243.49,112.87 242.79,109.56 C 241.6,107.08 240.49,104.57 239.44,102.02 C 238.28,99.95 237.01,97.93 235.64,95.99 C 235.7,95.59 235.6,95.25 235.34,94.96 C 228.83,85.94 220.93,78.37 211.64,72.24 C 211.84,71.21 212.36,70.41 213.21,69.84 Z M 76.12,199.37 C 79.15,200.18 82.19,200.95 85.24,201.69 C 85.22,202.33 85.34,202.94 85.59,203.53 C 84.73,203.6 83.94,203.86 83.21,204.31 C 80.46,203.55 77.7,202.81 74.94,202.1 C 75.35,201.2 75.74,200.28 76.12,199.37 Z"/></g>
<g><path fill="#6a6a6a" d="M 2.43,137.87 C 3.28,142.07 4.63,146.12 6.47,150 C 8.65,154.19 11.14,158.2 13.93,162.01 C 18.26,167.37 23.1,172.23 28.46,176.57 C 28.1,177.28 27.74,177.99 27.38,178.7 C 17.86,171.43 10.19,162.56 4.38,152.08 C 3.05,149.09 1.89,146.04 0.89,142.93 C 1.05,141.43 1.23,139.93 1.42,138.44 C 1.65,138.06 1.99,137.87 2.43,137.87 Z M 194.33,176.06 C 194.85,176.16 195.36,176.14 195.87,175.99 C 197.25,176.76 198.62,177.54 199.98,178.34 C 200.28,179.16 200.64,179.96 201.06,180.73 C 200.25,181.12 199.4,181.25 198.51,181.11 C 197.56,180.45 196.57,179.86 195.54,179.36 C 194.72,179.52 194.44,180.02 194.68,180.85 C 194.22,180.72 193.79,180.52 193.4,180.25 C 192.71,179.15 192.36,177.95 192.36,176.65 C 193.1,176.74 193.75,176.54 194.33,176.06 Z"/></g>
<g><path fill="#f6f6f6" stroke="#f6f6f6" stroke-width="0.5" d="M 47.29,179.11 C 46.64,178.75 45.95,178.44 45.25,178.2 C 45.92,176.5 46.74,174.88 47.72,173.33 C 48.68,171.97 49.49,172.02 50.16,173.49 C 49.72,175.61 48.76,177.48 47.29,179.11 Z M 209.06,171.89 C 209.84,171.79 210.5,172 211.06,172.54 C 211.2,173.51 211.19,174.49 211.03,175.48 C 211.25,176.75 211.81,177.84 212.72,178.76 C 213.19,178.97 213.68,179.12 214.19,179.21 C 213.73,179.6 213.27,179.98 212.81,180.35 C 200.97,188.5 188.13,194.48 174.28,198.3 C 174.29,198.11 174.29,197.91 174.3,197.71 C 174.85,197.31 175.4,196.9 175.94,196.48 C 175.91,196.24 175.89,196.01 175.86,195.77 C 175.05,194.99 174.18,194.99 173.25,195.76 C 172.09,195.72 171.99,195.3 172.96,194.52 C 173.79,194.28 174.62,194.02 175.44,193.74 C 176.01,193.39 176.15,192.94 175.85,192.38 C 174.44,192.25 173.16,192.59 172,193.42 C 171.64,193.2 171.27,192.99 170.91,192.77 C 171.46,192.5 171.73,192.06 171.72,191.44 C 171.36,189.62 170.91,187.82 170.37,186.04 C 169.7,183.74 168.17,182.61 165.78,182.67 C 165.96,182.3 166.24,182.05 166.63,181.91 C 168.37,182.09 170.05,181.83 171.65,181.13 C 172.33,181.09 172.95,181.24 173.53,181.59 C 173.14,182.73 173.07,183.88 173.31,185.06 C 173.81,186.55 174.3,188.05 174.77,189.56 C 175.18,190.84 176.03,191.24 177.31,190.78 C 177.86,190.54 178.13,190.11 178.12,189.5 C 177.65,187.73 177.01,186.01 176.2,184.35 C 176.02,183.57 175.95,182.77 175.98,181.97 C 176.75,181.67 177.47,181.76 178.15,182.23 C 179.17,184.34 180.07,186.48 180.87,188.65 C 181.49,188.95 182.14,189.01 182.8,188.81 C 183.6,189.19 184.38,189.15 185.14,188.7 C 185.83,187.92 186.44,187.07 186.96,186.16 C 187.67,186.36 188.38,186.35 189.09,186.14 C 190.54,186.23 191.97,186.15 193.38,185.89 C 194.27,185.5 194.76,184.83 194.85,183.86 C 195.35,182.83 195.3,181.82 194.68,180.85 C 194.44,180.02 194.72,179.52 195.54,179.36 C 196.57,179.86 197.56,180.45 198.51,181.11 C 199.4,181.25 200.25,181.12 201.06,180.73 C 201.71,180.35 202.24,179.82 202.65,179.12 C 203.19,178.95 203.75,178.84 204.32,178.8 C 204.67,178.71 204.83,178.49 204.79,178.14 C 205.49,177.24 205.91,176.24 206.06,175.12 C 207.38,175.18 208.57,174.86 209.66,174.16 C 209.9,173.29 209.7,172.54 209.06,171.89 Z"/></g>
<g><path fill="#e9f9fd" stroke="#e9f9fd" stroke-width="0.5" d="M 81.64,153.11 C 81.87,151.4 82.24,149.72 82.75,148.06 C 82.96,147.9 83.17,147.74 83.39,147.59 C 84.46,147.57 85.53,147.59 86.61,147.64 C 87.42,147.77 88.11,148.15 88.67,148.79 C 89.94,148.57 91.21,148.6 92.46,148.87 C 95.02,150 97.57,151.15 100.1,152.31 C 100.92,152.44 101.73,152.58 102.54,152.73 C 103.39,153.44 103.84,154.36 103.87,155.47 C 103.64,156.04 103.21,156.29 102.58,156.22 C 101.56,156.02 100.53,155.83 99.5,155.66 C 96.52,155.94 93.53,156.05 90.54,155.99 C 87.56,154.95 84.59,153.99 81.64,153.11 Z"/></g>
<g><path fill="#737373" d="M 72.03,51.93 C 72.1,52.88 72.18,53.83 72.28,54.78 C 58.74,58.86 46.05,64.77 34.23,72.53 C 34.35,70.66 33.53,70.09 31.77,70.81 C 44.15,62.3 57.56,56.01 72.03,51.93 Z"/></g>
<g><path fill="#616161" d="M 212.81,180.35 C 213.54,180.87 214.07,181.54 214.39,182.39 C 213.04,183.53 211.62,184.57 210.13,185.53 C 197.85,192.88 184.8,198.4 170.96,202.07 C 170.74,201.55 170.55,201.03 170.39,200.49 C 171.19,200.22 171.74,199.69 172.03,198.91 C 172.78,198.71 173.53,198.5 174.28,198.3 C 188.13,194.48 200.97,188.5 212.81,180.35 Z"/></g>
<g><path fill="#797979" d="M 174.95,52.11 C 178.39,53.27 181.83,54.4 185.28,55.49 C 188.55,56.85 191.81,58.23 195.07,59.62 C 199.33,62 203.65,64.28 208.02,66.44 C 209.83,67.46 211.56,68.59 213.21,69.84 C 212.36,70.41 211.84,71.21 211.64,72.24 C 199.92,64.64 187.37,58.8 173.99,54.73 C 174.55,53.94 174.87,53.07 174.95,52.11 Z M 176.19,54.2 C 176.53,54.61 177,54.8 177.59,54.76 C 178.1,54.88 178.56,54.79 178.96,54.5 C 178.11,53.97 177.18,53.87 176.19,54.2 Z M 182.9,57.08 C 183.74,57.39 184.43,57.22 184.97,56.58 C 184.7,55.96 184.23,55.75 183.57,55.95 C 183.15,56.22 182.93,56.59 182.9,57.08 Z"/></g>
<g><path fill="#61788a" d="M 151.77,161.8 C 150.82,161.67 149.87,161.67 148.92,161.8 C 149.09,161.33 149.31,160.88 149.58,160.45 C 149.32,160.15 148.99,160.01 148.58,160.02 C 146.29,159.81 144,159.69 141.71,159.64 C 141.34,159.52 141.1,159.27 140.99,158.91 C 144.42,158.9 147.85,158.76 151.28,158.48 C 153.69,158.02 155.95,157.15 158.05,155.87 C 162.72,152.79 166.6,148.92 169.68,144.24 C 170.71,142.27 171.77,140.31 172.86,138.39 C 173.94,138.07 174.7,138.43 175.14,139.49 C 174.88,140.76 174.46,141.98 173.88,143.15 C 169.02,152.35 161.65,158.57 151.77,161.8 Z"/></g>
<g><path fill="#ececec" d="M 188.69,176.33 C 188.68,176.31 188.67,176.29 188.66,176.28 C 189.88,178.86 191.3,181.32 192.93,183.64 C 193.53,184.02 194.17,184.09 194.85,183.86 C 194.76,184.83 194.27,185.5 193.38,185.89 C 191.97,186.15 190.54,186.23 189.09,186.14 C 189.34,185.89 189.45,185.59 189.43,185.24 C 189.1,184.69 188.78,184.15 188.45,183.61 C 188.4,181.61 187.68,179.87 186.29,178.41 C 186.44,177.45 186.89,176.69 187.64,176.15 C 187.99,176.21 188.34,176.27 188.69,176.33 Z M 158.17,185.38 C 159.23,185.3 160.22,185.55 161.14,186.14 C 161.98,188.52 162.63,190.96 163.07,193.45 C 163.48,194.22 164.12,194.72 164.97,194.97 C 164.31,195.61 163.59,196.14 162.8,196.56 C 162.5,195.91 162.06,195.39 161.49,195 C 160.73,195.28 160,195.66 159.32,196.12 C 158.85,196.24 158.41,196.18 158,195.94 C 158.35,195.56 158.41,195.13 158.17,194.66 C 157.51,194.12 156.77,193.73 155.93,193.5 C 155.28,192.52 154.62,191.54 153.96,190.56 C 154.22,189.69 154.3,188.8 154.21,187.88 C 154.79,187.93 155.37,187.89 155.94,187.76 C 156.59,188.39 157.36,188.68 158.25,188.63 C 159.03,187.69 158.95,186.78 158.02,185.92 C 158.07,185.74 158.12,185.56 158.17,185.38 Z"/></g>
<g><path fill="#b1c2d2" d="M 113.88,156.1 C 114.72,156.04 115.54,156.13 116.36,156.36 C 121.57,158.52 126.95,160.15 132.49,161.25 C 135.15,161.68 137.82,161.99 140.5,162.16 C 143.31,162.08 146.11,161.95 148.92,161.8 C 149.87,161.67 150.82,161.67 151.77,161.8 C 151.08,162.61 150.24,163.22 149.25,163.63 C 146.6,163.64 144,164.01 141.44,164.74 C 140.14,164.72 138.83,164.7 137.53,164.71 C 136.77,164.55 136.11,164.2 135.54,163.66 C 134.6,163.58 133.67,163.59 132.73,163.68 C 131.72,163.29 130.73,162.84 129.77,162.33 C 127.61,162.08 125.54,161.53 123.55,160.69 C 122.48,160.6 121.44,160.36 120.44,159.98 C 120.08,160.02 119.75,160.14 119.45,160.33 C 117.97,159.4 116.56,158.36 115.22,157.23 C 114.81,157.03 114.38,156.87 113.93,156.77 C 113.91,156.55 113.89,156.33 113.88,156.1 Z"/></g>
<g><path fill="#6c6c6c" d="M 44.22,166.93 C 44.36,168.05 44.19,169.13 43.71,170.15 C 42.09,169.99 41.53,169.11 42.03,167.48 C 42.62,166.86 43.35,166.67 44.22,166.93 Z M 152.33,186.87 C 153.05,187.05 153.67,187.39 154.21,187.88 C 154.3,188.8 154.22,189.69 153.96,190.56 C 153.08,191.56 152.66,192.75 152.7,194.11 C 152.1,193.65 151.57,193.11 151.12,192.48 C 150.02,192.27 148.95,191.99 147.9,191.64 C 147.58,190.97 147.23,190.3 146.87,189.65 C 146.58,189.25 146.2,189.1 145.72,189.19 C 144.59,191.3 144.85,193.22 146.5,194.94 C 147.41,195.28 148.19,195.79 148.85,196.47 C 148.26,198 147.16,198.51 145.53,198 C 142.09,196.2 141.03,193.47 142.36,189.8 C 144.63,186.16 147.19,185.93 150.04,189.09 C 150.36,189.22 150.7,189.27 151.04,189.24 C 151.6,188.53 152.03,187.74 152.33,186.87 Z"/></g>
<g><path fill="#929292" d="M 85.74,48.34 C 85.58,49.08 85.77,49.71 86.32,50.22 C 87.91,50.26 89.51,50.38 91.1,50.59 C 88.04,50.87 85.04,51.46 82.1,52.36 C 82.37,51.74 82.58,51.11 82.75,50.47 C 82.15,50.09 81.5,49.8 80.82,49.59 C 82.47,49.22 84.11,48.8 85.74,48.34 Z M 0,110 C 0.34,110.06 0.67,110.11 1.01,110.17 C 0.84,111.34 0.75,112.5 0.73,113.68 C 0.79,114.27 1.08,114.69 1.6,114.94 C 1.76,114.81 1.92,114.68 2.08,114.56 C 2.21,113.96 2.32,113.35 2.42,112.74 C 2.54,112.43 2.76,112.25 3.08,112.21 C 0.84,120.71 0.63,129.26 2.43,137.87 C 1.99,137.87 1.65,138.06 1.42,138.44 C 1.23,139.93 1.05,141.43 0.89,142.93 C 0.59,142.96 0.3,142.98 0,143.01 C 0,132.01 0,121 0,110 Z"/></g>
<g><path fill="#686868" d="M 80.82,49.59 C 81.5,49.8 82.15,50.09 82.75,50.47 C 82.58,51.11 82.37,51.74 82.1,52.36 C 78.78,52.97 75.51,53.78 72.28,54.78 C 72.18,53.83 72.1,52.88 72.03,51.93 C 74.92,50.99 77.84,50.21 80.82,49.59 Z M 23.95,76.94 C 25.08,76.95 25.92,77.45 26.46,78.45 C 20.04,83.37 14.73,89.29 10.53,96.2 C 9.3,95.86 8.72,95.04 8.8,93.75 C 10.51,91.33 12.33,89.01 14.28,86.78 C 17.48,83.47 20.7,80.19 23.95,76.94 Z M 128.25,188.25 C 130.06,188.16 131.39,188.9 132.24,190.49 C 132.61,192.83 132.89,195.18 133.08,197.54 C 132.87,199.02 132.03,199.47 130.58,198.9 C 130.09,198.73 129.72,198.43 129.45,197.98 C 129.43,197.15 129.53,196.32 129.75,195.5 C 129.43,194.92 129.09,194.37 128.72,193.82 C 128.98,192.75 129.09,191.65 129.06,190.52 C 128.9,189.73 128.63,188.97 128.25,188.25 Z M 70.19,197.61 C 72.16,198.23 74.14,198.81 76.12,199.37 C 75.74,200.28 75.35,201.2 74.94,202.1 C 72.3,201.35 69.68,200.54 67.08,199.66 C 67.11,199.08 67.29,198.57 67.64,198.12 C 68.48,197.92 69.33,197.75 70.19,197.61 Z M 85.24,201.69 C 87.18,202.07 89.12,202.42 91.06,202.76 C 90.78,203.75 90.77,204.74 91.03,205.73 C 88.42,205.29 85.81,204.82 83.21,204.31 C 83.94,203.86 84.73,203.6 85.59,203.53 C 85.34,202.94 85.22,202.33 85.24,201.69 Z"/></g>
<g><path fill="#676767" d="M 141.23,45.45 C 140.72,46.95 139.67,47.57 138.08,47.33 C 129.23,47.15 120.38,47.14 111.53,47.29 C 110.93,47.22 110.41,47.38 109.97,47.77 C 104.93,48.61 99.85,49.22 94.75,49.6 C 93.5,49.8 92.28,50.13 91.1,50.59 C 89.51,50.38 87.91,50.26 86.32,50.22 C 85.77,49.71 85.58,49.08 85.74,48.34 C 93.31,47.13 100.9,46.01 108.5,45 C 117.5,44.92 126.5,44.89 135.5,44.91 C 137.42,44.93 139.33,45.11 141.23,45.45 Z M 68.72,181.06 C 69.24,183.55 68.28,184.51 65.85,183.92 C 66.1,182.79 66.48,181.7 66.96,180.65 C 67.61,180.49 68.19,180.63 68.72,181.06 Z"/></g>
<g><path fill="#b6cad7" d="M 129.76,154.57 C 131.3,153.92 132.88,153.8 134.52,154.2 C 135.19,154.4 135.72,154.8 136.11,155.4 C 138.36,155.9 140.52,156.61 142.58,157.53 C 142.92,157.5 143.25,157.47 143.59,157.44 C 144.13,156.87 144.76,156.47 145.5,156.24 C 146.21,156.48 146.88,156.82 147.51,157.24 C 149.83,156.68 152.19,156.32 154.57,156.17 C 155.57,155.83 156.55,155.45 157.51,155.03 C 157.96,155.13 158.14,155.41 158.05,155.87 C 155.95,157.15 153.69,158.02 151.28,158.48 C 147.85,158.76 144.42,158.9 140.99,158.91 C 136.98,158.14 133.24,156.7 129.76,154.57 Z"/></g>
<g><path fill="#828282" d="M 8.8,93.75 C 8.72,95.04 9.3,95.86 10.53,96.2 C 7.26,101.17 4.78,106.51 3.08,112.21 C 2.76,112.25 2.54,112.43 2.42,112.74 C 2.32,113.35 2.21,113.96 2.08,114.56 C 1.92,114.68 1.76,114.81 1.6,114.94 C 1.08,114.69 0.79,114.27 0.73,113.68 C 0.75,112.5 0.84,111.34 1.01,110.17 C 2.71,104.27 5.31,98.8 8.8,93.75 Z M 21.22,157.74 C 19.82,158.32 18.66,158.03 17.73,156.88 C 17.72,156.4 17.95,156.1 18.43,155.98 C 19.42,155.88 20.4,155.94 21.37,156.15 C 21.68,156.69 21.63,157.22 21.22,157.74 Z"/></g>
<g><path fill="#ddebf2" d="M 143.82,114.95 C 142.68,114.78 142.29,114.11 142.65,112.94 C 142.82,112.53 143.12,112.26 143.55,112.13 C 144.4,111.96 145.23,111.73 146.04,111.43 C 147.11,111.63 148.2,111.7 149.3,111.65 C 149.99,111 150.73,110.41 151.52,109.89 C 152.1,109.79 152.68,109.71 153.26,109.64 C 153.6,109.07 153.99,108.56 154.44,108.1 C 154.86,108.5 155.32,108.61 155.81,108.42 C 156.8,107.37 157.85,106.39 158.96,105.48 C 159.46,104.36 160.15,103.38 161.05,102.55 C 162.36,100.19 163.64,97.85 164.89,95.51 C 164.97,93.21 164.93,90.93 164.75,88.65 C 164.44,88.27 164.14,87.88 163.87,87.47 C 163.79,86.62 163.66,85.78 163.49,84.95 C 163,84.39 162.58,83.79 162.22,83.14 C 160.95,80.39 159.66,77.65 158.36,74.93 C 158.17,74.59 157.89,74.45 157.52,74.52 C 156.72,75.24 155.93,75.17 155.16,74.32 C 154.23,73.22 153.18,72.26 152.02,71.43 C 151.97,70.83 151.92,70.23 151.87,69.63 C 151.69,69.52 151.51,69.41 151.34,69.3 C 150.73,69.39 150.14,69.34 149.56,69.13 C 148.47,67.96 147.13,67.29 145.54,67.11 C 144.23,66.05 142.81,65.16 141.28,64.43 C 140.17,64.49 139.2,64.16 138.37,63.44 C 136.83,63.7 135.48,63.34 134.32,62.33 C 131.07,62.05 127.81,61.89 124.54,61.86 C 122.17,62.19 119.79,62.31 117.41,62.23 C 116.27,62.67 115.15,63.18 114.03,63.75 C 113.18,64.21 112.29,64.6 111.38,64.91 C 110.85,64.56 110.28,64.3 109.68,64.14 C 109.29,64.77 108.87,65.39 108.43,65.99 C 107.19,66.45 105.95,66.9 104.71,67.34 C 104.3,67.94 103.91,68.56 103.53,69.19 C 102.99,69.4 102.43,69.53 101.85,69.58 C 101.49,70.14 101.13,70.69 100.76,71.25 C 99.81,71.65 98.96,72.2 98.22,72.91 C 97.52,73.06 96.88,73.3 96.29,73.63 C 96.45,74.63 96.2,75.49 95.56,76.21 C 94.74,76.19 93.96,76.32 93.23,76.58 C 93.59,77.41 93.74,78.26 93.68,79.15 C 92.8,80.27 91.75,81.23 90.56,82.04 C 90.22,82.82 89.86,83.59 89.49,84.36 C 89.94,84.97 90.1,85.64 89.99,86.37 C 89.39,86.83 88.76,87.26 88.12,87.65 C 88.06,87.93 88,88.2 87.94,88.48 C 88.29,90.77 88.41,93.07 88.29,95.39 C 89.02,96.84 89.34,98.39 89.23,100.04 C 89.21,100.99 89.09,101.94 88.87,102.87 C 87.52,100.53 86.72,98.01 86.47,95.28 C 86.34,85.21 89.96,76.74 97.35,69.85 C 102.67,65.43 108.74,62.55 115.55,61.23 C 122.16,59.7 128.76,59.7 135.36,61.22 C 143.22,62.76 150.26,66.05 156.48,71.07 C 163.01,76.72 166.26,83.87 166.22,92.5 C 166.34,100.54 162.87,106.48 155.82,110.32 C 152.26,112.11 148.53,113.41 144.63,114.23 C 144.25,114.35 143.98,114.59 143.82,114.95 Z"/></g>
<g><path fill="#606060" d="M 176.19,54.2 C 177.18,53.87 178.11,53.97 178.96,54.5 C 178.56,54.79 178.1,54.88 177.59,54.76 C 177,54.8 176.53,54.61 176.19,54.2 Z M 221.92,144.14 C 220.33,144.13 219.97,143.47 220.85,142.18 C 222.48,140.91 224.28,140.61 226.26,141.27 C 226.97,141.87 227.58,142.56 228.1,143.33 C 229.73,144.15 231.4,144.85 233.12,145.42 C 234.41,146.11 234.55,147 233.55,148.09 C 232.93,148.56 232.23,148.75 231.46,148.66 C 228.63,147.43 225.91,145.98 223.3,144.32 C 222.85,144.16 222.39,144.1 221.92,144.14 Z"/></g>
<g><path fill="#da251d" stroke="#da251d" stroke-width="0.5" d="M 132.14,96.09 C 132.67,95.17 133.25,94.27 133.87,93.41 C 136.62,91.96 138.68,92.67 140.06,95.52 C 140.74,97.46 140.22,98.99 138.51,100.12 C 136.27,101.01 134.37,100.54 132.8,98.72 C 132.37,97.9 132.15,97.02 132.14,96.09 Z"/></g>
<g><path fill="#e2e2e2" d="M 163.81,183.52 C 164.44,183.17 165.1,182.89 165.78,182.67 C 166.99,185.59 168,188.6 168.79,191.69 C 169.2,192.61 169.9,192.97 170.91,192.77 C 171.27,192.99 171.64,193.2 172,193.42 C 169.71,194.18 167.37,194.69 164.97,194.97 C 165.5,194.23 165.84,193.41 165.99,192.52 C 165.63,190.66 165.14,188.84 164.53,187.04 C 164.39,186.08 164.31,185.11 164.28,184.14 C 164.17,183.9 164.01,183.69 163.81,183.52 Z"/></g>
<g><path fill="#aeaead" d="M 138.08,47.33 C 138.02,47.52 137.97,47.71 137.91,47.9 C 128.59,48.03 119.28,47.98 109.97,47.77 C 110.41,47.38 110.93,47.22 111.53,47.29 C 120.38,47.14 129.23,47.15 138.08,47.33 Z"/></g>
<g><path fill="#bababa" d="M 17.84,150.18 C 17.76,151.01 17.57,151.81 17.27,152.6 C 17.39,153.95 18.14,154.78 19.51,155.08 C 21.37,155.32 23.19,155.7 24.99,156.24 C 24.44,157.32 23.72,158.27 22.81,159.08 C 22.45,158.41 21.92,157.97 21.22,157.74 C 21.63,157.22 21.68,156.69 21.37,156.15 C 20.4,155.94 19.42,155.88 18.43,155.98 C 17.95,156.1 17.72,156.4 17.73,156.88 C 16.8,156.08 16.04,155.11 15.45,153.99 C 14.78,153.15 14.27,152.22 13.93,151.19 C 15.32,151.22 16.62,150.88 17.84,150.18 Z"/></g>
<g><path fill="#c4c4c4" d="M 29.16,155.07 C 30.14,154.87 30.96,155.15 31.6,155.91 C 32.4,157.21 33.07,158.55 33.6,159.95 C 35.14,159.97 35.96,159.18 36.07,157.59 C 36.22,157.29 36.46,157.18 36.77,157.27 C 36.88,157.95 37.04,158.62 37.26,159.27 C 38.29,160.18 38.95,159.93 39.22,158.52 C 39.25,158.11 39.22,157.7 39.11,157.3 C 39.45,157.18 39.68,157.3 39.8,157.66 C 39.98,158.52 39.92,159.37 39.63,160.2 C 38.87,160.73 38.15,161.33 37.47,161.98 C 36.88,161.9 36.47,161.55 36.26,160.95 C 35.71,160.85 35.17,160.9 34.64,161.09 C 33.56,162.06 32.47,163.01 31.37,163.96 C 30.88,163.11 30.18,162.5 29.28,162.12 C 30.46,161.97 31.33,161.39 31.89,160.4 C 32,159.02 31.39,158.54 30.05,158.97 C 30.02,158.12 29.69,157.4 29.07,156.83 C 29.08,156.24 29.11,155.66 29.16,155.07 Z"/></g>
<g><path fill="#eaeaea" d="M 183.99,176.84 C 183.71,177.35 183.58,177.88 183.62,178.45 C 184.32,179.69 184.79,181.01 185.03,182.43 C 185.44,183.06 185.92,183.64 186.45,184.19 C 186.69,184.83 186.86,185.49 186.96,186.16 C 186.44,187.07 185.83,187.92 185.14,188.7 C 184.38,189.15 183.6,189.19 182.8,188.81 C 183.06,188.43 183.16,188.01 183.09,187.55 C 182.61,186.22 182.3,184.85 182.15,183.44 C 181.7,182.06 180.89,180.92 179.74,180.03 C 180.42,179.41 181.16,178.87 181.97,178.41 C 181.98,177.59 182.2,176.86 182.64,176.22 C 183.23,176.14 183.68,176.35 183.99,176.84 Z"/></g>
<g><path fill="#c9c9c9" d="M 203.39,170.01 C 204.37,170.69 205.17,171.55 205.78,172.61 C 205.91,173.54 205.67,174.39 205.04,175.13 C 204.43,174.85 203.86,174.49 203.35,174.03 C 202.78,173.83 202.39,174.02 202.19,174.59 C 201.84,176.67 202.71,177.85 204.79,178.14 C 204.83,178.49 204.67,178.71 204.32,178.8 C 203.75,178.84 203.19,178.95 202.65,179.12 C 202.24,179.82 201.71,180.35 201.06,180.73 C 200.64,179.96 200.28,179.16 199.98,178.34 C 200.66,177.91 201.1,177.31 201.29,176.53 C 201.24,175.27 200.78,174.17 199.93,173.24 C 200.8,172.81 201.26,172.11 201.31,171.16 C 202.18,171.06 202.87,170.68 203.39,170.01 Z"/></g>
<g><path fill="#797979" d="M 36.77,157.27 C 37.55,157.19 38.33,157.2 39.11,157.3 C 39.22,157.7 39.25,158.11 39.22,158.52 C 38.95,159.93 38.29,160.18 37.26,159.27 C 37.04,158.62 36.88,157.95 36.77,157.27 Z M 201.31,171.16 C 201.26,172.11 200.8,172.81 199.93,173.24 C 199.14,172.5 198.85,171.6 199.04,170.52 C 199.39,170.03 199.83,169.96 200.35,170.3 C 200.71,170.54 201.03,170.82 201.31,171.16 Z M 28.46,176.57 C 39.21,184.64 50.93,190.88 63.62,195.3 C 65.81,196.09 67.99,196.86 70.19,197.61 C 69.33,197.75 68.48,197.92 67.64,198.12 C 67.29,198.57 67.11,199.08 67.08,199.66 C 54.4,195.44 42.52,189.57 31.46,182.05 C 30.11,180.93 28.75,179.82 27.38,178.7 C 27.74,177.99 28.1,177.28 28.46,176.57 Z"/></g>
<g><path fill="#a2b0c0" d="M 122.14,142.03 C 122.33,139.19 122.53,136.36 122.74,133.53 C 122.58,132.36 122.44,131.18 122.31,130.01 C 122.58,129.64 122.94,129.4 123.37,129.29 C 123.55,131.41 124.01,133.47 124.75,135.47 C 124.23,137.42 123.88,139.4 123.69,141.4 C 123.33,141.98 122.81,142.18 122.14,142.03 Z"/></g>
<g><path fill="#5b7588" d="M 85.15,142.33 C 85.47,142.25 85.79,142.16 86.1,142.07 C 86.02,143.57 86.74,144.34 88.27,144.37 C 88.67,144.64 88.76,144.99 88.54,145.41 C 85.08,144.98 82.01,145.84 79.33,148.01 C 79.15,146.96 79.02,145.91 78.93,144.85 C 80.89,143.73 82.97,142.89 85.15,142.33 Z"/></g>
<g><path fill="#b6b6b6" d="M 246.29,114.94 C 246.75,115.11 246.91,115.43 246.77,115.92 C 246.31,115.76 246.15,115.44 246.29,114.94 Z M 244.6,146.03 C 244.77,146.46 244.66,146.76 244.27,146.94 C 244.3,146.61 244.41,146.31 244.6,146.03 Z M 217.27,175.95 C 217.53,176.03 217.79,176.1 218.06,176.18 C 217.97,177.47 217.27,178.04 215.96,177.9 C 216.36,177.23 216.8,176.58 217.27,175.95 Z M 66.74,178.23 C 67.57,178.68 68.31,179.24 68.96,179.91 C 68.88,180.3 68.8,180.68 68.72,181.06 C 68.19,180.63 67.61,180.49 66.96,180.65 C 66.48,181.7 66.1,182.79 65.85,183.92 C 65.45,184.01 65.2,183.85 65.1,183.43 C 65.11,182.49 64.88,181.62 64.4,180.83 C 63.87,179.87 63.04,179.49 61.92,179.71 C 61.83,179.06 62.09,178.6 62.7,178.34 C 64.04,177.8 65.38,177.77 66.74,178.23 Z"/></g>
<g><path fill="#5b5b5b" d="M 29.16,155.07 C 29.11,155.66 29.08,156.24 29.07,156.83 C 27.97,157.94 26.85,159.01 25.73,160.07 C 25.37,161.21 25.4,162.35 25.82,163.48 C 25.7,163.7 25.58,163.92 25.46,164.14 C 24.84,164.36 24.27,164.28 23.73,163.9 C 22.29,162.51 21.98,160.9 22.81,159.08 C 23.72,158.27 24.44,157.32 24.99,156.24 C 26.22,155.28 27.61,154.89 29.16,155.07 Z M 61.92,179.71 C 63.04,179.49 63.87,179.87 64.4,180.83 C 63.71,182.02 63.14,183.25 62.68,184.53 C 63.01,185.6 63.48,186.62 64.09,187.57 C 64.23,188.19 64.02,188.61 63.45,188.84 C 61.1,188.35 59.77,186.91 59.45,184.51 C 59.68,182.6 60.5,181 61.92,179.71 Z"/></g>
<g><path fill="#b9b2bf" d="M 142.73,98.97 C 142.98,99.8 143.07,100.65 142.99,101.52 C 143.07,102.1 143.34,102.57 143.81,102.93 C 144.94,102.51 146.14,102.34 147.4,102.4 C 146.33,103.47 145.16,104.42 143.9,105.24 C 142.42,105.48 140.96,105.45 139.52,105.15 C 139.06,104.66 138.88,104.06 138.98,103.38 C 140.65,102.26 141.89,100.79 142.73,98.97 Z"/></g>
<g><path fill="#976472" d="M 135.42,88.08 C 136.88,89.02 138.38,89.89 139.94,90.69 C 140.32,91 140.58,91.39 140.73,91.86 C 139.05,91.16 137.3,90.71 135.48,90.53 C 134.07,90.69 132.81,91.22 131.7,92.12 C 131.4,91.52 131.43,90.92 131.8,90.32 C 131.35,89.84 130.78,89.6 130.09,89.59 C 131.18,89.26 132.3,89.07 133.46,89.02 C 134.18,88.84 134.84,88.53 135.42,88.08 Z"/></g>
<g><path fill="#a98c9c" d="M 130.09,89.59 C 130.78,89.6 131.35,89.84 131.8,90.32 C 131.43,90.92 131.4,91.52 131.7,92.12 C 131.18,93.17 130.77,94.27 130.45,95.41 C 130.49,96.77 130.59,98.13 130.73,99.48 C 131.36,101.47 132.68,102.79 134.71,103.42 C 136.14,103.34 137.56,103.33 138.98,103.38 C 138.88,104.06 139.06,104.66 139.52,105.15 C 140.96,105.45 142.42,105.48 143.9,105.24 C 142.13,105.58 140.32,105.8 138.47,105.92 C 135.6,106.13 132.98,105.44 130.6,103.85 C 127.95,102.56 126.45,100.47 126.11,97.56 C 125.83,94.11 127.16,91.46 130.09,89.59 Z"/></g>
<g><path fill="#8c8c8c" d="M 215.08,149.07 C 215.9,148.56 216.57,148.69 217.07,149.46 C 217.21,151.96 217.13,154.45 216.83,156.94 C 216.22,157.34 215.58,157.68 214.91,157.96 C 214.74,156.49 214.72,155.01 214.84,153.52 C 214.71,152.76 214.45,152.04 214.05,151.38 C 214.12,150.5 214.46,149.73 215.08,149.07 Z"/></g>
<g><path fill="#b0c5d3" d="M 85.15,142.33 C 82.97,142.89 80.89,143.73 78.93,144.85 C 77.86,145.44 76.86,146.14 75.94,146.94 C 75.66,146.15 75.46,145.35 75.35,144.53 C 76.61,143.94 77.82,143.28 78.99,142.56 C 80.48,142.15 81.99,141.88 83.55,141.75 C 84.13,141.81 84.67,142.01 85.15,142.33 Z"/></g>
<g><path fill="#bfa2ac" d="M 134.61,86.4 C 136.46,87.01 138.22,87.8 139.89,88.76 C 141.47,89.93 142.59,91.42 143.28,93.25 C 143.38,93.92 143.21,94.5 142.76,95.01 C 142.4,93.76 141.72,92.71 140.73,91.86 C 140.58,91.39 140.32,91 139.94,90.69 C 138.38,89.89 136.88,89.02 135.42,88.08 C 135.16,87.51 134.89,86.95 134.61,86.4 Z"/></g>
<g><path fill="#bfcfdf" d="M 142.65,112.94 C 141.31,112.78 139.97,112.74 138.62,112.81 C 137.54,112.17 136.54,111.43 135.62,110.6 C 134.43,110.76 133.26,110.99 132.1,111.29 C 129.46,109.91 126.82,108.59 124.17,107.32 C 122.61,105.85 121.05,104.38 119.49,102.92 C 118.52,100.98 117.45,99.08 116.3,97.23 C 116.09,96.2 115.78,95.2 115.37,94.23 C 115.34,92.32 115.6,90.45 116.17,88.62 C 118.32,86.46 120.51,84.33 122.73,82.23 C 123.16,82.01 123.58,81.78 123.98,81.53 C 124.81,81.42 125.65,81.32 126.48,81.21 C 127.01,80.53 127.68,80.13 128.5,80 C 129.69,80.57 130.93,81.01 132.22,81.31 C 133.74,82.52 135.39,83.5 137.18,84.26 C 137.7,84.82 138.06,85.48 138.26,86.23 C 138.78,86.7 139.27,87.19 139.73,87.71 C 139.84,88.05 139.89,88.4 139.89,88.76 C 138.22,87.8 136.46,87.01 134.61,86.4 C 130.41,83.48 126.31,83.61 122.3,86.8 C 118.77,90.06 118.15,93.8 120.43,98.02 C 123.66,103.33 128.28,106.78 134.3,108.4 C 140.52,110.07 146.54,109.55 152.37,106.82 C 159.23,103.52 162.41,98.08 161.91,90.5 C 161.18,83.92 158.21,78.59 152.99,74.5 C 148.45,70.73 143.37,67.97 137.74,66.21 C 138.1,65.47 137.97,64.85 137.36,64.36 C 132.43,63.69 127.48,63.4 122.5,63.5 C 120.09,63.44 117.75,63.78 115.48,64.51 C 114.87,64.48 114.39,64.23 114.03,63.75 C 115.15,63.18 116.27,62.67 117.41,62.23 C 119.79,62.31 122.17,62.19 124.54,61.86 C 127.81,61.89 131.07,62.05 134.32,62.33 C 135.48,63.34 136.83,63.7 138.37,63.44 C 139.2,64.16 140.17,64.49 141.28,64.43 C 142.81,65.16 144.23,66.05 145.54,67.11 C 147.13,67.29 148.47,67.96 149.56,69.13 C 150.14,69.34 150.73,69.39 151.34,69.3 C 151.51,69.41 151.69,69.52 151.87,69.63 C 151.92,70.23 151.97,70.83 152.02,71.43 C 153.18,72.26 154.23,73.22 155.16,74.32 C 155.93,75.17 156.72,75.24 157.52,74.52 C 157.89,74.45 158.17,74.59 158.36,74.93 C 159.66,77.65 160.95,80.39 162.22,83.14 C 162.58,83.79 163,84.39 163.49,84.95 C 163.66,85.78 163.79,86.62 163.87,87.47 C 164.14,87.88 164.44,88.27 164.75,88.65 C 164.93,90.93 164.97,93.21 164.89,95.51 C 163.64,97.85 162.36,100.19 161.05,102.55 C 160.15,103.38 159.46,104.36 158.96,105.48 C 157.85,106.39 156.8,107.37 155.81,108.42 C 155.32,108.61 154.86,108.5 154.44,108.1 C 153.99,108.56 153.6,109.07 153.26,109.64 C 152.68,109.71 152.1,109.79 151.52,109.89 C 150.73,110.41 149.99,111 149.3,111.65 C 148.2,111.7 147.11,111.63 146.04,111.43 C 145.23,111.73 144.4,111.96 143.55,112.13 C 143.12,112.26 142.82,112.53 142.65,112.94 Z M 101.93,142.59 C 96.67,141.99 91.39,141.82 86.1,142.07 C 86.14,141.25 86.24,140.44 86.38,139.63 C 86.52,139.53 86.65,139.43 86.79,139.32 C 90.25,139.54 93.71,139.6 97.18,139.49 C 100.74,139.95 104.24,140.64 107.66,141.57 C 106.34,141.79 104.98,141.92 103.6,141.95 C 102.98,142.02 102.42,142.23 101.93,142.59 Z"/></g>
<g><path fill="#808080" d="M 30.64,71.69 C 30.86,72.66 31.4,73.4 32.26,73.91 C 30.31,75.4 28.37,76.92 26.46,78.45 C 25.92,77.45 25.08,76.95 23.95,76.94 C 26.19,75.2 28.42,73.46 30.64,71.69 Z"/></g>
<g><path fill="#b1b1b1" d="M 44.22,166.93 C 43.35,166.67 42.62,166.86 42.03,167.48 C 41.53,169.11 42.09,169.99 43.71,170.15 C 43.73,170.47 43.59,170.7 43.29,170.85 C 42.79,171.06 42.29,171.05 41.8,170.84 C 41.38,169.82 41.06,168.75 40.84,167.64 C 40.67,167.31 40.42,167.04 40.11,166.84 C 41.1,165.47 40.72,164.81 38.99,164.85 C 39.6,164.05 40.37,163.86 41.29,164.29 C 42.3,165.14 43.27,166.02 44.22,166.93 Z"/></g>
<g><path fill="#f4f4f4" stroke="#f4f4f4" stroke-width="0.5" d="M 218.03,147.81 C 218.34,147.84 218.65,147.87 218.96,147.9 C 219.41,148.61 219.95,149.23 220.58,149.77 C 223.36,151.35 226.02,153.08 228.57,154.97 C 230.52,154.91 231.06,154 230.19,152.25 C 229.81,151.98 229.41,151.73 228.99,151.51 C 229.41,151.22 229.88,151.06 230.39,151.04 C 231.57,151.28 232.76,151.44 233.96,151.54 C 234.7,152.15 235.4,152.8 236.06,153.51 C 236.64,153.68 237.21,153.86 237.79,154.05 C 236.56,155.88 235.37,157.74 234.22,159.65 C 229.63,165.94 224.24,171.46 218.06,176.18 C 217.79,176.1 217.53,176.03 217.27,175.95 C 217.73,175.16 217.81,174.33 217.53,173.46 C 216.99,172.53 216.33,171.71 215.53,170.98 C 214.8,169.28 214.8,167.56 215.52,165.82 C 215.99,166.38 216.47,166.93 216.97,167.47 C 217.91,168.01 218.75,167.87 219.48,167.04 C 220.12,166.34 220.29,165.56 219.99,164.68 C 218.73,163.89 217.6,162.97 216.58,161.89 C 216.28,161.32 216.43,160.87 217.03,160.54 C 219.21,160.69 221.4,160.99 223.59,161.44 C 225.36,161.17 226.24,160.14 226.24,158.33 C 226.06,158.13 225.87,157.93 225.69,157.73 C 223.7,157.72 221.71,157.67 219.71,157.57 C 218.75,157.4 217.79,157.19 216.83,156.94 C 217.13,154.45 217.21,151.96 217.07,149.46 C 216.57,148.69 215.9,148.56 215.08,149.07 C 215.01,148.61 215.17,148.25 215.56,147.99 C 216.37,147.74 217.19,147.68 218.03,147.81 Z M 15.45,153.99 C 16.04,155.11 16.8,156.08 17.73,156.88 C 18.66,158.03 19.82,158.32 21.22,157.74 C 21.92,157.97 22.45,158.41 22.81,159.08 C 21.98,160.9 22.29,162.51 23.73,163.9 C 24.27,164.28 24.84,164.36 25.46,164.14 C 25.58,163.92 25.7,163.7 25.82,163.48 C 25.4,162.35 25.37,161.21 25.73,160.07 C 26.85,159.01 27.97,157.94 29.07,156.83 C 29.69,157.4 30.02,158.12 30.05,158.97 C 28.78,159.74 28.52,160.79 29.28,162.12 C 30.18,162.5 30.88,163.11 31.37,163.96 C 30.7,164.9 29.98,165.8 29.2,166.64 C 28.5,168.77 29.25,169.62 31.46,169.19 C 31.89,168.9 32.21,168.52 32.4,168.03 C 33.26,169.68 34.02,171.32 34.68,172.96 C 35.39,173.93 36.33,174.33 37.49,174.16 C 38.01,173.25 38.02,172.31 37.51,171.34 C 37.91,169.59 38.78,168.09 40.11,166.84 C 40.42,167.04 40.67,167.31 40.84,167.64 C 41.06,168.75 41.38,169.82 41.8,170.84 C 42.29,171.05 42.79,171.06 43.29,170.85 C 43.59,170.7 43.73,170.47 43.71,170.15 C 44.19,169.13 44.36,168.05 44.22,166.93 C 44.58,167.03 44.85,167.26 45,167.61 C 45.03,168.65 45.36,169.57 46,170.37 C 44.79,172.54 43.45,174.62 41.98,176.62 C 41.69,177.94 42.23,178.73 43.59,178.98 C 44.33,179.11 44.89,178.85 45.25,178.2 C 45.95,178.44 46.64,178.75 47.29,179.11 C 46.68,180.51 47.11,181.42 48.59,181.82 C 49.14,181.97 49.57,181.8 49.88,181.33 C 50.89,179.36 51.91,177.38 52.93,175.39 C 53.25,174.33 53.3,173.25 53.08,172.15 C 53.47,172.01 53.84,172.06 54.19,172.3 C 54.66,173.25 55.31,174.06 56.11,174.74 C 55.97,175.59 55.78,176.44 55.57,177.29 C 54.69,178.77 54.01,180.33 53.51,181.98 C 53.1,183.7 53.74,184.71 55.44,185 C 55.64,184.84 55.84,184.68 56.04,184.52 C 56.59,182.05 57.66,179.83 59.23,177.86 C 59.94,177.21 60.69,176.58 61.49,175.98 C 62.15,176.3 62.83,176.57 63.52,176.8 C 64.49,176.72 65.44,176.82 66.37,177.1 C 66.72,177.41 66.84,177.78 66.74,178.23 C 65.38,177.77 64.04,177.8 62.7,178.34 C 62.09,178.6 61.83,179.06 61.92,179.71 C 60.5,181 59.68,182.6 59.45,184.51 C 59.77,186.91 61.1,188.35 63.45,188.84 C 64.02,188.61 64.23,188.19 64.09,187.57 C 63.48,186.62 63.01,185.6 62.68,184.53 C 63.14,183.25 63.71,182.02 64.4,180.83 C 64.88,181.62 65.11,182.49 65.1,183.43 C 65.2,183.85 65.45,184.01 65.85,183.92 C 68.28,184.51 69.24,183.55 68.72,181.06 C 68.8,180.68 68.88,180.3 68.96,179.91 C 69.87,179.69 70.69,179.31 71.42,178.77 C 72.03,179.3 72.69,179.75 73.42,180.11 C 73.8,180.4 73.9,180.77 73.71,181.21 C 72.8,180.92 72.03,181.09 71.4,181.73 C 71.36,182.66 71.23,183.58 71.01,184.49 C 70.17,186.55 69.47,188.66 68.91,190.81 C 67.75,191.13 66.95,191.86 66.52,192.99 C 65.44,193.62 64.48,194.39 63.62,195.3 C 50.93,190.88 39.21,184.64 28.46,176.57 C 23.1,172.23 18.26,167.37 13.93,162.01 C 14.52,161.39 15.16,160.83 15.85,160.31 C 15.85,160.1 15.84,159.88 15.84,159.67 C 15.27,159.22 14.7,158.76 14.13,158.31 C 13.57,157.25 12.92,156.25 12.17,155.32 C 12.06,154.93 12.16,154.63 12.48,154.41 C 13.19,154.78 13.87,155.19 14.53,155.63 C 14.91,155.13 15.22,154.58 15.45,153.99 Z M 115.97,190.9 C 116.81,191.03 117.66,191.08 118.51,191.04 C 118.36,193.35 118.23,195.65 118.12,197.96 C 117.73,198.05 117.34,198.14 116.95,198.23 C 116.46,197.87 116.02,197.47 115.6,197.03 C 114.61,194.93 114.73,192.88 115.97,190.9 Z"/></g>
<g><path fill="#b7b7b7" d="M 220.85,142.18 C 219.97,143.47 220.33,144.13 221.92,144.14 C 221.77,144.88 221.42,145.5 220.86,146.01 C 219.41,145.72 218.77,146.35 218.96,147.9 C 218.65,147.87 218.34,147.84 218.03,147.81 C 217.92,145.73 218.51,143.88 219.78,142.27 C 220.13,142.07 220.49,142.04 220.85,142.18 Z"/></g>
<g><path fill="#a8a8a8" d="M 195.87,175.99 C 195.36,176.14 194.85,176.16 194.33,176.06 C 193.63,174.62 193.58,173.16 194.15,171.68 C 195.01,170.95 195.85,170.93 196.68,171.64 C 196.31,173.07 196.03,174.52 195.87,175.99 Z"/></g>
<g><path fill="#afafaf" d="M 158.17,185.38 C 158.12,185.56 158.07,185.74 158.02,185.92 C 156.57,185.71 155.87,186.32 155.94,187.76 C 155.37,187.89 154.79,187.93 154.21,187.88 C 153.67,187.39 153.05,187.05 152.33,186.87 C 153.1,185.81 154.15,185.16 155.5,184.95 C 156.43,184.85 157.32,184.99 158.17,185.38 Z"/></g>
<g><path fill="#656565" d="M 31.77,70.81 C 33.53,70.09 34.35,70.66 34.23,72.53 C 33.56,72.98 32.91,73.44 32.26,73.91 C 31.4,73.4 30.86,72.66 30.64,71.69 C 31.01,71.39 31.39,71.1 31.77,70.81 Z"/></g>
<g><path fill="#b4b4b4" d="M 235.34,94.96 C 235.6,95.25 235.7,95.59 235.64,95.99 C 235.29,95.73 235.19,95.39 235.34,94.96 Z M 246.79,137.04 C 247.01,137.82 247.06,138.61 246.93,139.41 C 246.86,139.73 246.68,139.89 246.39,139.91 C 245.84,138.82 245.97,137.86 246.79,137.04 Z"/></g>
<g><path fill="#a6b0cb" d="M 127.78,153.55 C 128.47,153.21 128.83,153.41 128.85,154.15 C 128.45,154.03 128.09,153.83 127.78,153.55 Z"/></g>
<g><path fill="#9aadbe" d="M 95.27,108.13 C 95.8,108.09 96.01,108.34 95.89,108.87 C 95.35,108.91 95.14,108.67 95.27,108.13 Z"/></g>
<g><path fill="#c6d2de" d="M 147.4,102.4 C 146.14,102.34 144.94,102.51 143.81,102.93 C 143.34,102.57 143.07,102.1 142.99,101.52 C 143.07,100.65 142.98,99.8 142.73,98.97 C 143.19,97.65 143.2,96.33 142.76,95.01 C 143.21,94.5 143.38,93.92 143.28,93.25 C 143.6,93.03 143.93,93.01 144.28,93.19 C 145.09,94.17 145.42,95.29 145.25,96.56 C 145.9,97.19 146.57,97.19 147.24,96.59 C 147.32,94.87 147.61,93.2 148.12,91.56 C 148.08,90.24 147.99,88.92 147.87,87.61 C 147.11,85.99 146.89,84.28 147.2,82.5 C 146.24,81.36 145.4,80.13 144.67,78.83 C 143.3,77.4 141.7,76.33 139.87,75.64 C 139.49,74.36 138.67,73.52 137.4,73.11 C 135.47,72.76 133.57,72.3 131.69,71.71 C 131.32,71.39 130.92,71.14 130.47,70.95 C 127.15,70.78 123.82,70.78 120.49,70.95 C 120.03,71.11 119.62,71.36 119.24,71.67 C 118.08,71.79 116.95,72.01 115.83,72.35 C 114.51,72.97 113.23,73.68 111.99,74.48 C 111.42,74.6 110.85,74.68 110.27,74.72 C 109.86,75.44 109.63,76.23 109.58,77.09 C 108.66,77.96 107.67,78.74 106.61,79.42 C 106.48,80.79 106.24,82.14 105.9,83.47 C 106.29,85.27 106.04,86.96 105.14,88.54 C 105.74,89.2 106.3,89.89 106.8,90.63 C 106.82,91.58 106.9,92.52 107.03,93.45 C 107.78,94.75 108.49,96.07 109.16,97.41 C 109.59,97.92 110.05,98.4 110.52,98.88 C 110.66,99.73 110.77,100.58 110.85,101.44 C 112.52,103.04 113.69,104.94 114.35,107.16 C 115.23,107.95 116.1,108.76 116.94,109.57 C 117.08,110.1 117.24,110.62 117.41,111.13 C 118.19,112.34 118.94,113.56 119.68,114.8 C 119.88,115.58 120.09,116.36 120.31,117.14 C 120.8,117.69 121.3,118.22 121.81,118.73 C 121.85,119.59 121.99,120.41 122.24,121.21 C 123.03,121.42 123.66,121.84 124.12,122.48 C 123.72,124.78 124.23,126.87 125.65,128.73 C 125.73,129.69 125.69,130.64 125.53,131.59 C 125.68,132.43 126.07,133.15 126.69,133.76 C 126.54,134.91 126.54,136.06 126.67,137.21 C 125.55,139.11 125.23,141.14 125.71,143.3 C 125.07,144.3 124.56,145.35 124.15,146.46 C 124.53,147.39 124.93,148.29 125.34,149.17 C 127.87,148.17 129.16,146.29 129.21,143.53 C 129.42,134.67 129.34,125.81 128.99,116.96 C 129.58,116.34 130.16,116.36 130.74,117.04 C 130.86,125.86 130.86,134.68 130.73,143.51 C 130.77,144.5 130.88,145.48 131.06,146.46 C 131.1,147.01 131.32,147.47 131.73,147.84 C 134.92,148.52 138.11,148.52 141.31,147.86 C 141.76,147.5 141.97,147.03 141.93,146.45 C 141.95,137.8 141.99,129.14 142.05,120.49 C 142.05,119.17 141.87,117.87 141.52,116.6 C 142.27,116.54 143,116.66 143.7,116.98 C 143.95,127.46 143.95,137.95 143.68,148.43 C 143.7,149.13 143.46,149.73 142.97,150.21 C 142.54,149.88 142.06,149.66 141.54,149.55 C 139.86,149.44 138.18,149.42 136.5,149.47 C 134.49,149.73 132.5,150.09 130.53,150.56 C 129.72,150.42 129.36,149.92 129.45,149.03 C 129.29,148.99 129.13,148.95 128.97,148.9 C 127.64,149.95 126.97,151.31 126.96,152.99 C 124.61,151.99 122.44,150.72 120.44,149.19 C 120.3,148.78 120.29,148.36 120.41,147.94 C 121.33,146.07 121.91,144.1 122.14,142.03 C 122.81,142.18 123.33,141.98 123.69,141.4 C 123.88,139.4 124.23,137.42 124.75,135.47 C 124.01,133.47 123.55,131.41 123.37,129.29 C 122.94,129.4 122.58,129.64 122.31,130.01 C 121.63,126.46 120.41,123.1 118.67,119.94 C 115.62,114.95 112.56,109.97 109.48,105 C 106.92,100.68 104.74,96.18 102.94,91.5 C 102.35,88.5 102.32,85.49 102.84,82.48 C 103.4,80.89 103.88,79.29 104.3,77.67 C 105.24,76.63 106.1,75.54 106.88,74.38 C 109.8,71.16 113.39,69.14 117.67,68.31 C 123.97,66.93 130.2,67.23 136.35,69.2 C 143.88,72.02 148.94,77.23 151.51,84.82 C 151.88,88.28 151.86,91.74 151.45,95.2 C 150.62,97.89 149.27,100.29 147.4,102.4 Z"/></g>
<g><path fill="#ded9df" d="M 132.1,111.29 C 133.26,110.99 134.43,110.76 135.62,110.6 C 136.54,111.43 137.54,112.17 138.62,112.81 C 139.97,112.74 141.31,112.78 142.65,112.94 C 142.29,114.11 142.68,114.78 143.82,114.95 C 143.85,115.63 143.81,116.31 143.7,116.98 C 143,116.66 142.27,116.54 141.52,116.6 C 138.56,115.94 135.56,115.69 132.52,115.86 C 131.6,115.8 131.01,116.19 130.74,117.04 C 130.16,116.36 129.58,116.34 128.99,116.96 C 128.43,116.13 128.49,115.37 129.17,114.67 C 130.91,114.49 132.65,114.32 134.38,114.14 C 134.68,113.77 134.66,113.42 134.35,113.08 C 133.66,112.4 132.91,111.81 132.1,111.29 Z"/></g>
<g><path fill="#cedfea" d="M 89.23,100.04 C 89.6,100.1 89.91,100.28 90.15,100.58 C 91.05,102.41 91.79,104.32 92.38,106.29 C 93.1,106.69 93.89,106.89 94.75,106.89 C 94.92,107.31 95.1,107.72 95.27,108.13 C 95.14,108.67 95.35,108.91 95.89,108.87 C 100.48,114.68 105.22,120.35 110.11,125.88 C 109.58,128.52 110.48,130.47 112.81,131.72 C 114.3,133.34 114.8,135.22 114.32,137.34 C 115.59,139.66 115.97,142.12 115.46,144.73 C 114.63,144.94 113.81,145.1 112.99,145.23 C 113.02,145.45 113.05,145.68 113.08,145.91 C 109.5,144.34 105.78,143.23 101.93,142.59 C 102.42,142.23 102.98,142.02 103.6,141.95 C 104.98,141.92 106.34,141.79 107.66,141.57 C 104.24,140.64 100.74,139.95 97.18,139.49 C 93.71,139.6 90.25,139.54 86.79,139.32 C 86.65,139.43 86.52,139.53 86.38,139.63 C 86.24,140.44 86.14,141.25 86.1,142.07 C 85.79,142.16 85.47,142.25 85.15,142.33 C 84.67,142.01 84.13,141.81 83.55,141.75 C 81.99,141.88 80.48,142.15 78.99,142.56 C 77.82,143.28 76.61,143.94 75.35,144.53 C 75.46,145.35 75.66,146.15 75.94,146.94 C 75.24,147.56 74.58,148.22 73.95,148.91 C 71.26,148.81 69.81,150.13 69.61,152.85 C 69.55,155.17 70.15,157.31 71.41,159.29 C 72.51,160.07 73.6,160.87 74.69,161.67 C 76.09,162.08 77.37,162.72 78.53,163.58 C 82.5,163.43 86.43,163.76 90.31,164.57 C 91.3,164.03 92.35,163.73 93.47,163.67 C 94.4,164.05 95.35,164.31 96.33,164.47 C 97.05,164.23 97.74,163.94 98.42,163.59 C 99.7,163.59 100.99,163.55 102.26,163.48 C 103.5,163.16 104.08,162.4 103.99,161.2 C 105.49,160.84 106.96,160.36 108.38,159.76 C 110.23,158.77 112.08,157.77 113.93,156.77 C 114.38,156.87 114.81,157.03 115.22,157.23 C 116.56,158.36 117.97,159.4 119.45,160.33 C 119.75,160.14 120.08,160.02 120.44,159.98 C 121.44,160.36 122.48,160.6 123.55,160.69 C 125.54,161.53 127.61,162.08 129.77,162.33 C 130.73,162.84 131.72,163.29 132.73,163.68 C 133.67,163.59 134.6,163.58 135.54,163.66 C 136.11,164.2 136.77,164.55 137.53,164.71 C 138.83,164.7 140.14,164.72 141.44,164.74 C 144,164.01 146.6,163.64 149.25,163.63 C 150.24,163.22 151.08,162.61 151.77,161.8 C 161.65,158.57 169.02,152.35 173.88,143.15 C 174.46,141.98 174.88,140.76 175.14,139.49 C 174.7,138.43 173.94,138.07 172.86,138.39 C 171.77,140.31 170.71,142.27 169.68,144.24 C 166.6,148.92 162.72,152.79 158.05,155.87 C 158.14,155.41 157.96,155.13 157.51,155.03 C 156.55,155.45 155.57,155.83 154.57,156.17 C 152.19,156.32 149.83,156.68 147.51,157.24 C 146.88,156.82 146.21,156.48 145.5,156.24 C 144.76,156.47 144.13,156.87 143.59,157.44 C 143.25,157.47 142.92,157.5 142.58,157.53 C 140.52,156.61 138.36,155.9 136.11,155.4 C 135.72,154.8 135.19,154.4 134.52,154.2 C 132.88,153.8 131.3,153.92 129.76,154.57 C 129.45,154.43 129.15,154.29 128.85,154.15 C 128.83,153.41 128.47,153.21 127.78,153.55 C 127.51,153.36 127.23,153.18 126.96,152.99 C 126.97,151.31 127.64,149.95 128.97,148.9 C 129.13,148.95 129.29,148.99 129.45,149.03 C 129.36,149.92 129.72,150.42 130.53,150.56 C 132.5,150.09 134.49,149.73 136.5,149.47 C 138.18,149.42 139.86,149.44 141.54,149.55 C 142.06,149.66 142.54,149.88 142.97,150.21 C 140.53,150.51 138.08,150.77 135.62,150.97 C 135.52,151.11 135.41,151.25 135.3,151.39 C 136.21,152.98 137.59,153.97 139.44,154.35 C 140.82,154.41 142.17,154.66 143.47,155.1 C 145.51,155.01 147.54,155.09 149.57,155.32 C 151.32,154.42 153.18,153.86 155.16,153.65 C 155.54,153.37 155.85,153.02 156.1,152.62 C 157.3,152.26 158.41,151.69 159.42,150.93 C 159.8,150.29 160.17,149.65 160.54,149 C 162.1,147.57 163.64,146.13 165.17,144.67 C 165.8,143.38 166.6,142.21 167.56,141.15 C 168.23,139.46 168.97,137.83 169.78,136.24 C 170.88,135.84 171.85,135.24 172.7,134.45 C 174.31,134.04 175.77,134.35 177.08,135.38 C 178.58,137.05 179.1,139.01 178.64,141.24 C 177.63,143.73 176.19,145.94 174.34,147.87 C 173.04,150.17 171.69,152.46 170.31,154.74 C 166.36,157.79 162.37,160.77 158.32,163.68 C 157.2,163.77 156.16,164.11 155.2,164.67 C 152.15,164.88 149.2,165.51 146.36,166.58 C 140.92,166.4 135.51,166.01 130.12,165.4 C 127.75,164.37 125.28,163.74 122.71,163.52 C 120.95,162.68 119.18,161.85 117.39,161.04 C 116.79,160.73 116.14,160.59 115.46,160.63 C 113.11,161.06 111.08,162.07 109.34,163.67 C 106.11,164.47 102.83,165.14 99.49,165.66 C 97.05,165.91 94.61,166.17 92.17,166.45 C 90.99,166.29 89.8,166.19 88.62,166.16 C 87.04,166.73 85.41,166.91 83.74,166.68 C 81.17,165.72 78.51,165.07 75.78,164.72 C 74.5,163.99 73.19,163.32 71.86,162.69 C 70.58,161.67 69.4,160.55 68.31,159.33 C 68.13,158.42 67.96,157.52 67.8,156.61 C 67.25,155.66 66.8,154.68 66.44,153.68 C 66.95,152.79 67.28,151.84 67.42,150.82 C 68.15,149.94 68.9,149.06 69.65,148.19 C 69.96,147.51 70.3,146.83 70.67,146.18 C 72.66,144.92 74.47,143.43 76.11,141.72 C 78.69,140.53 81.35,139.53 84.08,138.74 C 87.61,138.44 91.14,138.05 94.65,137.59 C 98.87,138.17 103.08,138.82 107.27,139.53 C 108.53,139.8 109.66,140.34 110.66,141.15 C 111.29,141.38 111.75,141.2 112.05,140.59 C 113.02,138.35 112.57,136.46 110.69,134.9 C 110.42,133.86 110.05,132.86 109.56,131.9 C 108.57,130.86 107.72,129.72 107.02,128.47 C 106.09,128.08 105.16,127.76 104.21,127.5 C 104.52,126.92 104.72,126.3 104.82,125.65 C 103.73,124.79 102.67,123.86 101.65,122.87 C 100.63,120.67 99.14,118.84 97.17,117.4 C 96.05,115.26 94.58,113.4 92.74,111.83 C 91.86,109.79 90.83,107.83 89.66,105.95 C 89.38,104.93 89.12,103.9 88.87,102.87 C 89.09,101.94 89.21,100.99 89.23,100.04 Z"/></g>
<g><path fill="#637e94" d="M 111.65,155.07 C 112.2,155.8 112.95,156.14 113.88,156.1 C 113.89,156.33 113.91,156.55 113.93,156.77 C 112.08,157.77 110.23,158.77 108.38,159.76 C 106.96,160.36 105.49,160.84 103.99,161.2 C 97.37,162.58 90.71,162.79 84.01,161.81 C 83.91,161.37 84.07,161.08 84.5,160.94 C 87.54,161.3 90.59,161.47 93.65,161.46 C 94.21,161.32 94.6,161 94.83,160.49 C 94.14,160.08 93.52,159.57 92.98,158.99 C 97.43,159.38 101.77,158.89 106.01,157.51 C 107.92,156.71 109.8,155.9 111.65,155.07 Z"/></g>
<g><path fill="#aec2d1" d="M 110.11,125.88 C 113.54,129.49 115.94,133.69 117.31,138.49 C 117.49,140.34 117.58,142.2 117.57,144.07 C 117.29,147.39 115.79,148 113.08,145.91 C 113.05,145.68 113.02,145.45 112.99,145.23 C 113.81,145.1 114.63,144.94 115.46,144.73 C 115.97,142.12 115.59,139.66 114.32,137.34 C 114.8,135.22 114.3,133.34 112.81,131.72 C 110.48,130.47 109.58,128.52 110.11,125.88 Z M 73.95,148.91 C 71.99,150.91 71.22,153.27 71.66,155.99 C 72.83,158.2 74.6,159.71 76.98,160.52 C 79.28,161.19 81.62,161.62 84.01,161.81 C 90.71,162.79 97.37,162.58 103.99,161.2 C 104.08,162.4 103.5,163.16 102.26,163.48 C 100.99,163.55 99.7,163.59 98.42,163.59 C 97.74,163.94 97.05,164.23 96.33,164.47 C 95.35,164.31 94.4,164.05 93.47,163.67 C 92.35,163.73 91.3,164.03 90.31,164.57 C 86.43,163.76 82.5,163.43 78.53,163.58 C 77.37,162.72 76.09,162.08 74.69,161.67 C 73.6,160.87 72.51,160.07 71.41,159.29 C 70.15,157.31 69.55,155.17 69.61,152.85 C 69.81,150.13 71.26,148.81 73.95,148.91 Z"/></g>
<g><path fill="#f4fbfd" stroke="#f4fbfd" stroke-width="0.5" d="M 143.28,93.25 C 142.59,91.42 141.47,89.93 139.89,88.76 C 139.89,88.4 139.84,88.05 139.73,87.71 C 139.27,87.19 138.78,86.7 138.26,86.23 C 138.06,85.48 137.7,84.82 137.18,84.26 C 135.39,83.5 133.74,82.52 132.22,81.31 C 130.93,81.01 129.69,80.57 128.5,80 C 127.68,80.13 127.01,80.53 126.48,81.21 C 125.65,81.32 124.81,81.42 123.98,81.53 C 123.58,81.78 123.16,82.01 122.73,82.23 C 120.51,84.33 118.32,86.46 116.17,88.62 C 115.6,90.45 115.34,92.32 115.37,94.23 C 115.78,95.2 116.09,96.2 116.3,97.23 C 117.45,99.08 118.52,100.98 119.49,102.92 C 121.05,104.38 122.61,105.85 124.17,107.32 C 126.82,108.59 129.46,109.91 132.1,111.29 C 132.91,111.81 133.66,112.4 134.35,113.08 C 134.66,113.42 134.68,113.77 134.38,114.14 C 132.65,114.32 130.91,114.49 129.17,114.67 C 128.49,115.37 128.43,116.13 128.99,116.96 C 129.34,125.81 129.42,134.67 129.21,143.53 C 129.16,146.29 127.87,148.17 125.34,149.17 C 124.93,148.29 124.53,147.39 124.15,146.46 C 124.56,145.35 125.07,144.3 125.71,143.3 C 125.23,141.14 125.55,139.11 126.67,137.21 C 126.54,136.06 126.54,134.91 126.69,133.76 C 126.07,133.15 125.68,132.43 125.53,131.59 C 125.69,130.64 125.73,129.69 125.65,128.73 C 124.23,126.87 123.72,124.78 124.12,122.48 C 123.66,121.84 123.03,121.42 122.24,121.21 C 121.99,120.41 121.85,119.59 121.81,118.73 C 121.3,118.22 120.8,117.69 120.31,117.14 C 120.09,116.36 119.88,115.58 119.68,114.8 C 118.94,113.56 118.19,112.34 117.41,111.13 C 117.24,110.62 117.08,110.1 116.94,109.57 C 116.1,108.76 115.23,107.95 114.35,107.16 C 113.69,104.94 112.52,103.04 110.85,101.44 C 110.77,100.58 110.66,99.73 110.52,98.88 C 110.05,98.4 109.59,97.92 109.16,97.41 C 108.49,96.07 107.78,94.75 107.03,93.45 C 106.9,92.52 106.82,91.58 106.8,90.63 C 106.3,89.89 105.74,89.2 105.14,88.54 C 106.04,86.96 106.29,85.27 105.9,83.47 C 106.24,82.14 106.48,80.79 106.61,79.42 C 107.67,78.74 108.66,77.96 109.58,77.09 C 109.63,76.23 109.86,75.44 110.27,74.72 C 110.85,74.68 111.42,74.6 111.99,74.48 C 113.23,73.68 114.51,72.97 115.83,72.35 C 116.95,72.01 118.08,71.79 119.24,71.67 C 119.62,71.36 120.03,71.11 120.49,70.95 C 123.82,70.78 127.15,70.78 130.47,70.95 C 130.92,71.14 131.32,71.39 131.69,71.71 C 133.57,72.3 135.47,72.76 137.4,73.11 C 138.67,73.52 139.49,74.36 139.87,75.64 C 141.7,76.33 143.3,77.4 144.67,78.83 C 145.4,80.13 146.24,81.36 147.2,82.5 C 146.89,84.28 147.11,85.99 147.87,87.61 C 147.99,88.92 148.08,90.24 148.12,91.56 C 147.61,93.2 147.32,94.87 147.24,96.59 C 146.57,97.19 145.9,97.19 145.25,96.56 C 145.42,95.29 145.09,94.17 144.28,93.19 C 143.93,93.01 143.6,93.03 143.28,93.25 Z"/></g>
<g><path fill="#4a566b" stroke="#4a566b" stroke-width="0.5" d="M 78.93,144.85 C 79.02,145.91 79.15,146.96 79.33,148.01 C 77.91,150.06 77.98,152.09 79.54,154.08 C 81.16,155.99 83.2,157.22 85.66,157.77 C 88.06,158.41 90.5,158.82 92.98,158.99 C 93.52,159.57 94.14,160.08 94.83,160.49 C 94.6,161 94.21,161.32 93.65,161.46 C 90.59,161.47 87.54,161.3 84.5,160.94 C 84.07,161.08 83.91,161.37 84.01,161.81 C 81.62,161.62 79.28,161.19 76.98,160.52 C 74.6,159.71 72.83,158.2 71.66,155.99 C 71.22,153.27 71.99,150.91 73.95,148.91 C 74.58,148.22 75.24,147.56 75.94,146.94 C 76.86,146.14 77.86,145.44 78.93,144.85 Z"/></g>
<g><path fill="#505050" d="M 182.9,57.08 C 183.05,56.18 183.57,55.8 184.47,55.96 C 185.1,56.35 185.11,56.74 184.5,57.14 C 183.96,57.26 183.43,57.25 182.9,57.08 Z M 228.46,128.99 C 228.77,127.27 229.8,126.37 231.54,126.28 C 233.05,126.81 233.95,127.87 234.22,129.45 C 233.63,131.15 232.42,131.96 230.59,131.89 C 229.25,131.4 228.54,130.43 228.46,128.99 Z M 83.81,194.04 C 84.2,192.86 84.58,191.68 84.96,190.49 C 85.63,187.49 86.15,184.46 86.52,181.41 C 87.29,180.23 88.29,180.07 89.52,180.92 C 90.2,181.23 90.58,181.74 90.68,182.47 C 90.19,184.5 89.62,186.51 88.95,188.49 C 88.56,190.47 88.25,192.47 88.01,194.47 C 87.35,195.27 86.51,195.54 85.48,195.28 C 84.69,195.17 84.13,194.76 83.81,194.04 Z M 173.53,181.59 C 174.07,180.89 174.78,180.47 175.65,180.31 C 175.76,180.86 175.87,181.42 175.98,181.97 C 175.95,182.77 176.02,183.57 176.2,184.35 C 177.01,186.01 177.65,187.73 178.12,189.5 C 178.13,190.11 177.86,190.54 177.31,190.78 C 176.03,191.24 175.18,190.84 174.77,189.56 C 174.3,188.05 173.81,186.55 173.31,185.06 C 173.07,183.88 173.14,182.73 173.53,181.59 Z"/></g>
<g><path fill="#585858" d="M 30.05,158.97 C 31.39,158.54 32,159.02 31.89,160.4 C 31.33,161.39 30.46,161.97 29.28,162.12 C 28.52,160.79 28.78,159.74 30.05,158.97 Z M 38.99,164.85 C 40.72,164.81 41.1,165.47 40.11,166.84 C 38.78,168.09 37.91,169.59 37.51,171.34 C 38.02,172.31 38.01,173.25 37.49,174.16 C 36.33,174.33 35.39,173.93 34.68,172.96 C 34.05,169.19 35.48,166.48 38.99,164.85 Z M 192.36,176.65 C 192.36,177.95 192.71,179.15 193.4,180.25 C 193.79,180.52 194.22,180.72 194.68,180.85 C 195.3,181.82 195.35,182.83 194.85,183.86 C 194.17,184.09 193.53,184.02 192.93,183.64 C 191.3,181.32 189.88,178.86 188.66,176.28 C 188.67,176.29 188.68,176.31 188.69,176.33 C 187.67,174.83 186.82,173.26 186.14,171.63 C 186.63,170.71 187.39,170.24 188.42,170.22 C 190.11,172.12 191.42,174.26 192.36,176.65 Z M 165.78,182.67 C 168.17,182.61 169.7,183.74 170.37,186.04 C 170.91,187.82 171.36,189.62 171.72,191.44 C 171.73,192.06 171.46,192.5 170.91,192.77 C 169.9,192.97 169.2,192.61 168.79,191.69 C 168,188.6 166.99,185.59 165.78,182.67 Z M 91.56,195.14 C 92.42,192.24 93.19,189.35 93.87,186.46 C 94.29,186.26 94.72,186.24 95.16,186.41 C 95.67,186.79 96.2,187.14 96.74,187.47 C 97.65,187.27 98.56,187.08 99.47,186.89 C 100.8,187.47 100.98,188.34 100.01,189.48 C 98.78,189.59 97.56,189.69 96.34,189.76 C 95.67,191.95 95.24,194.17 95.05,196.43 C 94.36,196.97 93.6,197.05 92.79,196.66 C 92.19,196.31 91.78,195.8 91.56,195.14 Z M 115.97,190.9 C 114.73,192.88 114.61,194.93 115.6,197.03 C 116.02,197.47 116.46,197.87 116.95,198.23 C 116.88,198.57 116.69,198.81 116.37,198.96 C 114.2,199.4 112.75,198.56 112.04,196.47 C 112.17,194.84 112.23,193.21 112.24,191.58 C 112.76,189.98 113.82,188.93 115.43,188.42 C 115.56,188.52 115.68,188.63 115.81,188.73 C 115.86,189.46 115.91,190.18 115.97,190.9 Z M 124.26,191.03 C 124.63,190.07 125.31,189.52 126.32,189.36 C 127,190.23 127.17,191.2 126.84,192.27 C 125.35,193.07 124.5,192.66 124.26,191.03 Z M 124.15,197 C 124.26,195.54 125.04,194.67 126.47,194.38 C 127.18,195.61 127.56,196.95 127.62,198.4 C 127.12,199.11 126.44,199.32 125.58,199.02 C 124.68,198.65 124.2,197.98 124.15,197 Z"/></g>
<g><path fill="#4d4d4d" d="M 12.65,130.11 C 12.86,128.41 13.81,127.41 15.52,127.1 C 18.17,127.88 18.75,129.42 17.25,131.72 C 16.11,133.05 14.94,133.05 13.76,131.72 C 13.28,131.26 12.91,130.72 12.65,130.11 Z M 158.02,185.92 C 158.95,186.78 159.03,187.69 158.25,188.63 C 157.36,188.68 156.59,188.39 155.94,187.76 C 155.87,186.32 156.57,185.71 158.02,185.92 Z"/></g>
<g><path fill="#585858" d="M 36.26,160.95 C 36.59,161.82 36.53,162.67 36.08,163.49 C 34.86,165.01 33.63,166.52 32.4,168.03 C 32.21,168.52 31.89,168.9 31.46,169.19 C 29.25,169.62 28.5,168.77 29.2,166.64 C 29.98,165.8 30.7,164.9 31.37,163.96 C 32.47,163.01 33.56,162.06 34.64,161.09 C 35.17,160.9 35.71,160.85 36.26,160.95 Z M 118.12,197.96 C 118.23,195.65 118.36,193.35 118.51,191.04 C 118.68,189.17 118.72,187.3 118.63,185.43 C 118.75,185.17 118.88,184.92 119,184.66 C 120.85,183.91 121.87,184.52 122.07,186.48 C 121.59,190.16 121.36,193.86 121.38,197.57 C 121.27,197.86 121.17,198.16 121.06,198.46 C 119.85,199.48 118.87,199.32 118.12,197.96 Z M 100.51,194.01 C 100.79,191.25 102.15,189.19 104.6,187.84 C 105.41,187.85 105.72,188.25 105.51,189.05 C 104.58,190.01 104.09,191.16 104.04,192.5 C 104,194.11 103.91,195.72 103.76,197.32 C 103.56,197.75 103.25,197.85 102.84,197.62 C 101.51,196.79 100.73,195.58 100.51,194.01 Z"/></g>
<g><path fill="#525252" d="M 17.84,150.18 C 16.62,150.88 15.32,151.22 13.93,151.19 C 13.14,150.24 13.11,149.31 13.84,148.38 C 15.15,147.62 16.49,146.91 17.86,146.26 C 20.08,144.59 22.31,142.94 24.55,141.31 C 25.5,141.45 26.18,141.97 26.58,142.87 C 27.09,143.63 27.09,144.38 26.59,145.11 C 25.61,145.49 24.66,145.92 23.73,146.4 C 21.72,147.59 19.76,148.86 17.84,150.18 Z M 53.08,172.15 C 53.3,173.25 53.25,174.33 52.93,175.39 C 51.91,177.38 50.89,179.36 49.88,181.33 C 49.57,181.8 49.14,181.97 48.59,181.82 C 47.11,181.42 46.68,180.51 47.29,179.11 C 48.76,177.48 49.72,175.61 50.16,173.49 C 49.49,172.02 48.68,171.97 47.72,173.33 C 46.74,174.88 45.92,176.5 45.25,178.2 C 44.89,178.85 44.33,179.11 43.59,178.98 C 42.23,178.73 41.69,177.94 41.98,176.62 C 43.45,174.62 44.79,172.54 46,170.37 C 46.78,169.13 47.42,167.83 47.91,166.45 C 49.5,164.87 50.53,165.19 51,167.39 C 50.66,168.49 50.13,169.49 49.4,170.37 C 50.59,171.02 51.82,171.61 53.08,172.15 Z M 209.06,171.89 C 209.7,172.54 209.9,173.29 209.66,174.16 C 208.57,174.86 207.38,175.18 206.06,175.12 C 205.72,175.12 205.38,175.12 205.04,175.13 C 205.67,174.39 205.91,173.54 205.78,172.61 C 205.17,171.55 204.37,170.69 203.39,170.01 C 202.93,169.2 202.49,168.39 202.06,167.57 C 202.2,167.34 202.34,167.11 202.48,166.87 C 204.04,166.43 205.31,166.87 206.3,168.2 C 206.91,169 207.4,169.88 207.76,170.83 C 208.18,171.2 208.61,171.55 209.06,171.89 Z M 59.23,177.86 C 57.66,179.83 56.59,182.05 56.04,184.52 C 55.84,184.68 55.64,184.84 55.44,185 C 53.74,184.71 53.1,183.7 53.51,181.98 C 54.01,180.33 54.69,178.77 55.57,177.29 C 55.78,176.44 55.97,175.59 56.11,174.74 C 57.06,174.69 57.88,174.33 58.56,173.64 C 59.53,173.79 60.01,174.37 59.98,175.37 C 59.37,176.1 59.12,176.93 59.23,177.86 Z M 183.99,176.84 C 185.44,176.47 186.2,176.99 186.29,178.41 C 187.68,179.87 188.4,181.61 188.45,183.61 C 188.78,184.15 189.1,184.69 189.43,185.24 C 189.45,185.59 189.34,185.89 189.09,186.14 C 188.38,186.35 187.67,186.36 186.96,186.16 C 186.86,185.49 186.69,184.83 186.45,184.19 C 185.92,183.64 185.44,183.06 185.03,182.43 C 184.79,181.01 184.32,179.69 183.62,178.45 C 183.58,177.88 183.71,177.35 183.99,176.84 Z M 106.32,197.07 C 106.85,194.63 107.16,192.16 107.26,189.65 C 108.09,188.63 108.83,188.72 109.5,189.9 C 110.91,192.83 110.48,195.45 108.19,197.75 C 107.23,198.3 106.61,198.08 106.32,197.07 Z M 153.96,190.56 C 154.62,191.54 155.28,192.52 155.93,193.5 C 156.77,193.73 157.51,194.12 158.17,194.66 C 158.41,195.13 158.35,195.56 158,195.94 C 155.75,196.7 153.98,196.09 152.7,194.11 C 152.66,192.75 153.08,191.56 153.96,190.56 Z"/></g>
<g><path fill="#505050" d="M 220.86,146.01 C 221.58,146.56 222.39,146.94 223.29,147.16 C 223.79,147.68 224.3,148.2 224.81,148.71 C 226.3,149.5 227.7,150.43 228.99,151.51 C 229.41,151.73 229.81,151.98 230.19,152.25 C 231.06,154 230.52,154.91 228.57,154.97 C 226.02,153.08 223.36,151.35 220.58,149.77 C 219.95,149.23 219.41,148.61 218.96,147.9 C 218.77,146.35 219.41,145.72 220.86,146.01 Z M 181.61,173.99 C 182.07,172.38 182.99,172.02 184.35,172.93 C 184.69,174.43 184.08,175.17 182.52,175.15 C 182.02,174.91 181.72,174.53 181.61,173.99 Z M 179.74,180.03 C 180.89,180.92 181.7,182.06 182.15,183.44 C 182.3,184.85 182.61,186.22 183.09,187.55 C 183.16,188.01 183.06,188.43 182.8,188.81 C 182.14,189.01 181.49,188.95 180.87,188.65 C 180.07,186.48 179.17,184.34 178.15,182.23 C 177.47,181.76 176.75,181.67 175.98,181.97 C 175.87,181.42 175.76,180.86 175.65,180.31 C 176.27,179.79 176.99,179.48 177.8,179.37 C 178.58,179.22 179.23,179.44 179.74,180.03 Z"/></g>
<g><path fill="#a13437" d="M 140.73,91.86 C 141.72,92.71 142.4,93.76 142.76,95.01 C 143.2,96.33 143.19,97.65 142.73,98.97 C 141.89,100.79 140.65,102.26 138.98,103.38 C 137.56,103.33 136.14,103.34 134.71,103.42 C 132.68,102.79 131.36,101.47 130.73,99.48 C 130.59,98.13 130.49,96.77 130.45,95.41 C 130.77,94.27 131.18,93.17 131.7,92.12 C 132.81,91.22 134.07,90.69 135.48,90.53 C 137.3,90.71 139.05,91.16 140.73,91.86 Z M 132.14,96.09 C 132.14,98.36 133.23,99.81 135.43,100.45 C 137.98,100.94 139.63,99.96 140.37,97.51 C 140.3,94.94 139.03,93.3 136.55,92.58 C 135.56,92.56 134.67,92.83 133.87,93.41 C 133.25,94.27 132.67,95.17 132.14,96.09 Z"/></g>
<g><path fill="#4f4f4f" d="M 205.04,175.13 C 205.38,175.12 205.72,175.12 206.06,175.12 C 205.91,176.24 205.49,177.24 204.79,178.14 C 202.71,177.85 201.84,176.67 202.19,174.59 C 202.39,174.02 202.78,173.83 203.35,174.03 C 203.86,174.49 204.43,174.85 205.04,175.13 Z"/></g>
<g><path fill="#595959" d="M 233.01,141 C 233.3,140.18 233.84,139.57 234.62,139.19 C 235.58,139.08 236.14,139.5 236.3,140.45 C 236.36,141.42 236.03,142.21 235.31,142.83 C 234.11,142.8 233.34,142.19 233.01,141 Z"/></g>
</svg>
